<svg version="1.1" xmlns="http://www.w3.org/2000/svg" style="display: block;" viewBox="0 0 2048 2048" width="1024" height="1024" preserveAspectRatio="none">
<path transform="translate(0,0)" fill="rgb(131,108,254)" d="M 983.585 936.124 C 994.123 795.18 1003.15 654.128 1010.68 512.992 L 1018.31 376.409 C 1019.31 359.439 1020.18 327.174 1022.91 311.663 C 1025.74 326.537 1026.58 352.588 1027.54 368.325 L 1033.42 463.75 L 1051.43 739.294 L 1058.07 836.176 C 1059.19 851.832 1060.11 871.465 1061.99 886.843 C 1065.3 878.644 1071.67 867.429 1075.86 859.415 C 1087.23 837.508 1099.02 815.826 1111.24 794.381 L 1224.92 595.897 C 1219.03 616.326 1211.74 632.988 1204.19 652.867 C 1194.67 678.359 1185.33 703.914 1176.15 729.531 L 1137.65 836.402 C 1130.43 856.605 1119.49 889.679 1110.95 908.874 C 1129.09 892.42 1148.73 878.115 1167.8 862.717 C 1199.45 836.855 1230.91 810.757 1262.18 784.426 L 1407.96 660.187 C 1432.85 638.794 1458.06 617.769 1483.58 597.121 C 1492.44 589.832 1502.04 580.967 1510.79 574.169 C 1500.84 588.684 1474.69 616.231 1462.08 630.117 C 1424.26 671.767 1385.74 712.78 1346.55 753.139 C 1299.11 803.878 1250.97 853.963 1202.16 903.38 C 1184.77 921.044 1159.94 947.936 1142.45 963.613 C 1167.55 953.005 1222.52 938.848 1250.02 931.131 L 1419.97 883.408 L 1503.75 860.438 C 1512.5 858.022 1534.7 851.047 1542.25 849.855 C 1518.56 863.799 1488.05 877.649 1463.2 889.757 C 1361.43 938.544 1257.05 981.673 1150.52 1018.95 C 1172.21 1022.12 1197.18 1027.93 1219.11 1032.07 L 1350.66 1056.31 C 1417.21 1068.22 1483.63 1080.92 1549.89 1094.4 C 1588.94 1102.08 1637.16 1110.94 1675.57 1120.38 C 1662.83 1121.02 1639.43 1118.37 1626 1117.46 L 1530.52 1111.06 C 1446.88 1106.04 1363.36 1099.36 1279.99 1091.01 C 1238.18 1087 1176.71 1082.37 1135.66 1073.68 C 1157.7 1087.32 1185.85 1109.67 1207.08 1125.68 C 1248.64 1156.76 1289.81 1188.34 1330.6 1220.42 L 1424.11 1293.84 C 1435.78 1302.99 1455.25 1316.73 1465.16 1325.59 C 1454.33 1321.16 1438.62 1312.65 1427.9 1307.06 C 1407.38 1296.39 1386.94 1285.55 1366.59 1274.55 C 1298.63 1238.16 1231.22 1200.75 1164.38 1162.33 L 1102.57 1126.94 C 1091.92 1120.81 1078.9 1112.8 1068.17 1107.44 L 1038.28 1537.39 C 1037.06 1555.3 1027.33 1724.37 1024.52 1726.87 C 1021.57 1718.96 1018.97 1658.74 1018.22 1645.85 L 1006.12 1422.44 L 996.415 1249.08 C 994.726 1218.43 992.286 1189.07 992.031 1158.28 C 950.634 1248.54 896.241 1341.6 848.276 1428.72 C 841.517 1441 808.982 1501.55 801.765 1509.24 C 809.804 1482.99 822.093 1451.57 831.74 1425.53 C 848.305 1379.87 865.299 1334.37 882.722 1289.03 L 919.544 1190.4 C 923.488 1179.93 930.039 1160.27 934.328 1150.78 C 922.803 1158.77 907.924 1172.67 897.101 1182.15 L 838.612 1232.8 L 639.587 1403.57 C 613.069 1425.92 579.713 1454.5 552.396 1475.51 L 549.604 1472.57 C 556.243 1466.65 565.991 1455.97 572.537 1449.33 L 622.249 1398.65 C 691.769 1327.1 760.119 1254.42 827.273 1180.64 L 874.227 1130.69 C 887.403 1116.57 902.655 1099.59 916.763 1086.57 C 805.671 1115.38 696.66 1145.99 584.692 1173 L 531.281 1185.52 C 517.1 1188.94 499.703 1194.53 485.558 1194.86 C 505.888 1188.24 529.429 1177.17 549.192 1168.42 C 578.729 1155.24 608.384 1142.33 638.153 1129.69 C 722.315 1094.2 804.839 1062.91 889.789 1030.02 C 870.364 1024.88 845.18 1020.34 825.025 1016.08 L 714.301 992.39 C 647.877 977.959 581.801 961.969 516.128 944.433 C 479.025 934.75 439.903 925.333 403.35 914.055 C 393.593 911.923 385.16 909.153 375.679 906.15 C 386.288 905.671 390.453 906.126 400.865 907.742 C 444.816 913.56 491.575 917.218 535.999 922.38 C 597.846 929.744 659.617 937.731 721.303 946.338 C 782.081 954.416 846.912 962.687 907.314 972.973 C 898.324 966.087 888.008 959.777 878.202 952.194 C 783.129 878.465 690.004 802.255 598.926 723.644 C 592.594 718.613 586.833 712.849 581.004 707.234 C 585.17 708.247 596.682 715.475 600.648 717.975 C 624.106 729.68 649.799 744.393 673.107 756.992 C 735.771 790.8 797.889 825.611 859.437 861.412 C 887.826 877.863 916.639 893.785 944.451 911.055 C 957.326 919.05 971.619 926.989 983.585 936.124 z"/>
<path transform="translate(0,0)" fill="rgb(232,234,248)" d="M 1015.83 974.291 C 1045.13 970.162 1072.22 990.605 1076.28 1019.92 C 1080.35 1049.23 1059.84 1076.27 1030.52 1080.27 C 1001.3 1084.25 974.357 1063.83 970.306 1034.61 C 966.254 1005.39 986.619 978.408 1015.83 974.291 z"/>
<path transform="translate(0,0)" fill="rgb(131,108,254)" d="M 688.902 456.941 C 693.815 460.544 714.001 485.671 719.217 492.051 C 772.497 558.459 823.846 626.393 873.198 695.769 C 891.659 721.643 927.933 767.192 935.601 797.033 C 940.026 814.253 958.397 882.415 956.761 898.768 L 955.311 898.249 C 948.165 887.656 940.204 873.947 933.073 862.763 C 913.553 832.646 894.463 802.252 875.808 771.591 C 837.65 709.173 801.347 650.257 764.262 587.043 L 716.684 505.102 C 709.557 492.976 693.961 468.213 688.902 456.941 z"/>
<path transform="translate(0,0)" fill="rgb(131,108,254)" d="M 1083.22 1157.1 C 1084.29 1157.4 1088.2 1158.28 1088.8 1158.95 C 1110.88 1183.68 1138.85 1211.03 1157.32 1238.57 C 1178.77 1270.54 1200.33 1305.88 1220.27 1338.73 C 1261.31 1406.45 1300.56 1475.26 1337.96 1545.06 C 1341.47 1551.65 1362.44 1590.15 1363.46 1594.11 C 1357.01 1589.69 1328.68 1547.52 1321.95 1538.04 C 1291.97 1496.14 1262.41 1453.95 1233.27 1411.45 C 1204.98 1371.46 1177.15 1331.13 1149.79 1290.49 C 1142.66 1279.87 1122.05 1251.1 1116.83 1241.07 C 1104.57 1217.48 1094.03 1182.97 1083.22 1157.1 z"/>
<path transform="translate(0,0)" fill="rgb(112,101,196)" fill-opacity="0.976471" d="M 534.415 1488.11 C 539.793 1483.72 544.885 1477.76 549.604 1472.57 L 552.396 1475.51 C 545.619 1481.49 542.499 1484.24 534.415 1488.11 z"/>
</svg>