<svg version="1.1" xmlns="http://www.w3.org/2000/svg" style="display: block;" viewBox="0 0 2048 1365" width="1536" height="1024" preserveAspectRatio="none">
<defs>
	<linearGradient id="Gradient1" gradientUnits="userSpaceOnUse" x1="1186.67" y1="1189.25" x2="1187.26" y2="1192.38">
		<stop class="stop0" offset="0" stop-opacity="0.0392157" stop-color="rgb(129,56,162)"/>
		<stop class="stop1" offset="1" stop-opacity="0.0745098" stop-color="rgb(125,52,160)"/>
	</linearGradient>
	<linearGradient id="Gradient2" gradientUnits="userSpaceOnUse" x1="1169.83" y1="1190.87" x2="1170.44" y2="1194.85">
		<stop class="stop0" offset="0" stop-opacity="0.0392157" stop-color="rgb(129,57,160)"/>
		<stop class="stop1" offset="1" stop-opacity="0.0705882" stop-color="rgb(125,54,158)"/>
	</linearGradient>
	<linearGradient id="Gradient3" gradientUnits="userSpaceOnUse" x1="1249.54" y1="528.309" x2="1252.87" y2="525.328">
		<stop class="stop0" offset="0" stop-opacity="0.215686" stop-color="rgb(114,60,150)"/>
		<stop class="stop1" offset="1" stop-opacity="0.266667" stop-color="rgb(116,63,150)"/>
	</linearGradient>
	<linearGradient id="Gradient4" gradientUnits="userSpaceOnUse" x1="1467.46" y1="991.303" x2="1465.32" y2="994.521">
		<stop class="stop0" offset="0" stop-opacity="0.0392157" stop-color="rgb(134,65,170)"/>
		<stop class="stop1" offset="1" stop-opacity="0.0705882" stop-color="rgb(131,61,167)"/>
	</linearGradient>
	<linearGradient id="Gradient5" gradientUnits="userSpaceOnUse" x1="1456.25" y1="782.036" x2="1440.13" y2="780.126">
		<stop class="stop0" offset="0" stop-opacity="0.4" stop-color="rgb(115,59,151)"/>
		<stop class="stop1" offset="1" stop-opacity="0.443137" stop-color="rgb(112,55,155)"/>
	</linearGradient>
	<linearGradient id="Gradient6" gradientUnits="userSpaceOnUse" x1="428.46" y1="734.77" x2="391.523" y2="713.521">
		<stop class="stop0" offset="0" stop-opacity="1" stop-color="rgb(186,83,226)"/>
		<stop class="stop1" offset="1" stop-opacity="1" stop-color="rgb(211,117,246)"/>
	</linearGradient>
	<linearGradient id="Gradient7" gradientUnits="userSpaceOnUse" x1="805.958" y1="425.15" x2="857.007" y2="517.662">
		<stop class="stop0" offset="0" stop-opacity="0" stop-color="rgb(145,90,162)"/>
		<stop class="stop1" offset="1" stop-opacity="0.0392157" stop-color="rgb(106,81,147)"/>
	</linearGradient>
	<linearGradient id="Gradient8" gradientUnits="userSpaceOnUse" x1="488.778" y1="922.163" x2="485.229" y2="707.88">
		<stop class="stop0" offset="0" stop-opacity="1" stop-color="rgb(180,69,220)"/>
		<stop class="stop1" offset="1" stop-opacity="1" stop-color="rgb(209,118,244)"/>
	</linearGradient>
	<linearGradient id="Gradient9" gradientUnits="userSpaceOnUse" x1="1158.86" y1="1280.41" x2="926.784" y2="437.95">
		<stop class="stop0" offset="0" stop-opacity="1" stop-color="rgb(177,61,216)"/>
		<stop class="stop1" offset="1" stop-opacity="1" stop-color="rgb(207,102,246)"/>
	</linearGradient>
</defs>
<path transform="translate(0,0)" fill="url(#Gradient9)" d="M 979.608 432.205 L 979.414 431.03 C 976.564 414.201 962.09 404.809 950.957 393.088 C 900.485 339.948 904.725 256.427 945.525 198.363 C 971.977 161.11 1011.92 135.648 1056.86 127.394 C 1108.03 118.487 1160.05 126.384 1202.95 156.814 C 1241.16 183.592 1267.05 224.565 1274.82 270.574 C 1286.2 339.665 1246.44 405.012 1186.22 437.173 C 1168.13 446.835 1153.96 445.945 1147.57 468.293 C 1146.49 471.389 1141.99 481.285 1142.97 483.262 C 1145.29 487.908 1146.3 488.021 1146.63 493.765 L 1148.09 495.231 C 1154.46 495.452 1157.95 495.313 1164.3 494.719 C 1169.16 494.646 1175.56 494.363 1180.28 494.682 C 1207.47 497.181 1218.66 503.368 1239.48 519.999 C 1245.82 526.534 1252.12 532.806 1257.89 539.866 C 1260.02 542.976 1262.38 547.278 1265.5 548.944 L 1268.39 548.835 C 1286.76 551.45 1300.05 554.945 1316.29 563.154 C 1352.9 581.666 1379.18 625.405 1380.55 666.023 C 1380.55 665.957 1389.11 668.904 1390.04 669.224 C 1386.86 671.399 1385.84 671.353 1387.15 675.799 C 1390.26 677.322 1394 679.006 1396.87 680.844 C 1405.21 686.997 1409.86 690.358 1417.2 697.595 C 1421.45 702.334 1424.41 706.06 1428.24 711.157 C 1432.84 718.181 1436.26 726.05 1439.73 731.335 L 1441.4 735.057 C 1451.54 766.836 1454.11 790.936 1442.19 823.102 C 1440.78 826.151 1439.95 827.784 1439.02 831.071 C 1442.52 835.304 1445.95 839.595 1449.31 843.941 C 1468.66 883.664 1458.45 928.498 1431.11 961.446 C 1428.75 963.486 1426.43 965.427 1424.22 967.636 C 1418.29 972.106 1421.28 970.418 1423.36 977.258 C 1423.72 978.435 1424.48 979.597 1425.6 980.136 L 1430.76 981.714 C 1433.13 982.614 1438.74 984.901 1440.93 985.495 C 1448.51 988.559 1453.96 990.98 1461.08 995.111 C 1462.51 995.94 1471.35 1001.15 1472.05 1001.43 C 1487.27 1013.38 1497.63 1023.38 1509.25 1038.97 C 1514.45 1046.61 1525.99 1068.05 1530.95 1073.51 C 1552.58 1076.48 1590.52 1079.7 1596.35 1104.8 C 1595.9 1106.14 1594.33 1110.48 1594.11 1111.59 C 1585.15 1116.9 1575.3 1112.7 1566.06 1109.95 C 1560.51 1108.4 1554.83 1106.68 1549.16 1105.73 C 1554.84 1108.75 1557.24 1109.79 1561.78 1114.23 C 1571.9 1125.48 1588.62 1151.42 1566.14 1160.16 C 1554.05 1156.08 1547 1143.23 1538.41 1132.92 C 1533.62 1125.76 1530.54 1124.16 1523.21 1119.46 C 1527.75 1129.92 1531.92 1138.19 1537.23 1148.31 C 1542.9 1165.57 1537.62 1193.14 1516.01 1176.82 C 1509.45 1168.47 1500.59 1145.1 1496.94 1134.77 C 1496.05 1129.39 1494.88 1123.24 1494.32 1117.88 C 1490.72 1121.05 1487.16 1124.04 1484.29 1127.91 C 1474.83 1140.71 1475.11 1154.26 1457.65 1155.46 C 1453.38 1153.61 1452.63 1152.95 1449.06 1150.1 C 1437.89 1125.26 1466.42 1104.27 1482.94 1090.38 L 1489.46 1085.08 C 1486.15 1077.71 1482.18 1069.89 1478.62 1062.56 C 1463.99 1033.05 1433.23 1012.1 1401.79 1004.36 C 1399.62 1003.43 1396.61 1003.05 1394.22 1002.62 C 1380.67 999.053 1378.63 1006.32 1372.61 1016.59 C 1379.58 1017.13 1382.64 1017.78 1389.47 1019.44 C 1394.28 1020.93 1395.67 1021.67 1400.11 1024.07 C 1399.7 1024.8 1399.29 1025.53 1398.86 1026.25 C 1371.4 1073.93 1304.27 1104.55 1252.74 1078.97 C 1247.61 1076.42 1242.83 1073.78 1237.89 1070.9 C 1215.76 1093.11 1194.85 1104.75 1163.08 1107.75 C 1141.58 1109.78 1125.72 1107.29 1106.52 1097.37 C 1098.02 1102.3 1090.94 1106.32 1081.51 1109.53 C 1034.15 1125.65 982.46 1102.85 948.685 1069.29 C 892.171 1096.36 820.551 1065.63 793.961 1010.25 C 790.985 1011.49 787.996 1012.68 784.994 1013.85 C 742.091 1030.45 687.969 1016.33 667.705 972.045 C 665.874 968.043 664.308 963.621 662.735 959.492 L 662.854 956.997 C 661.434 954.233 656.353 954.764 652.654 954.361 C 605.291 949.205 567.556 888.548 553.894 846.555 C 546.025 803.366 560.815 789.75 580.226 757.802 C 577.055 746.353 570.22 735.011 567.454 721.12 C 561.046 688.946 565.161 663.077 582.351 635.172 C 581.263 621.412 589.617 618.058 598.353 609.391 C 605.048 602.748 611.75 596.174 619.938 591.334 L 619.82 593.04 L 620.579 593.034 C 623.761 588.003 628.282 573.958 631.096 567.173 C 634.007 560.993 636.357 557.814 640.234 552.266 C 651.557 536.978 660.453 529.959 676.267 519.762 C 682.95 515.833 687.135 513.143 693.453 508.577 C 698.084 505.196 701.988 502.781 706.901 499.797 C 711.685 497.121 716.08 494.391 720.732 491.49 C 742.706 481.978 769.404 470.862 793.397 478.811 C 797.516 475.109 804.185 470.877 808.912 467.669 C 813.146 465.934 823.246 460.032 828.749 457.474 C 854.091 445.694 873.286 443.734 900.676 443.861 C 913.098 445.086 925.984 445.867 938.004 449.144 C 944.036 450.895 961.542 456.989 965.987 460.87 C 970.653 457.952 973.836 456.313 978.807 453.905 C 979.308 447.689 980.665 437.957 979.608 432.205 z"/>
<path transform="translate(0,0)" fill="rgb(68,34,120)" d="M 979.608 432.205 L 979.414 431.03 C 976.564 414.201 962.09 404.809 950.957 393.088 C 900.485 339.948 904.725 256.427 945.525 198.363 C 971.977 161.11 1011.92 135.648 1056.86 127.394 C 1108.03 118.487 1160.05 126.384 1202.95 156.814 C 1241.16 183.592 1267.05 224.565 1274.82 270.574 C 1286.2 339.665 1246.44 405.012 1186.22 437.173 C 1168.13 446.835 1153.96 445.945 1147.57 468.293 C 1146.49 471.389 1141.99 481.285 1142.97 483.262 C 1145.29 487.908 1146.3 488.021 1146.63 493.765 L 1148.09 495.231 C 1148.29 497.711 1148.5 501.958 1148.87 504.262 C 1149.17 514.491 1149.75 517.032 1145.87 526.497 C 1141.71 531.307 1139.9 532.485 1134.65 536.213 C 1135.94 551.681 1136.63 557.971 1128.79 572.128 C 1125.32 574.242 1121.47 576.756 1117.82 578.452 C 1108.83 577.674 1100.25 576.109 1091.36 574.607 L 1085.04 584.023 C 1083.67 585.413 1071.15 596.878 1070.9 597.314 C 1067.78 599.029 1064.58 600.589 1061.3 601.988 C 1049.45 606.917 1032.61 608.473 1020.78 603.07 C 1000.38 593.746 992.98 575.949 985.306 557.025 C 960.256 546.569 953.318 530.751 966.806 505.958 C 963.586 498.842 961.999 493.794 961.002 486.1 C 963.143 480.219 961.11 470.893 965.987 460.87 C 970.653 457.952 973.836 456.313 978.807 453.905 C 979.308 447.689 980.665 437.957 979.608 432.205 z"/>
<path transform="translate(0,0)" fill="rgb(49,207,232)" d="M 986.664 453.666 C 988.431 434.137 989.923 423.52 976.665 407.38 C 968.838 397.851 957.186 389.239 950.017 379.967 C 900.636 316.102 921.176 220.808 981.295 171.661 C 1054.06 112.176 1170.09 120.639 1230.66 193.21 C 1257.06 225.16 1271.37 265.961 1267.64 307.496 C 1263.25 356.316 1231.77 400.981 1189.96 425.523 C 1176.02 433.709 1155.34 438.091 1145.96 452.283 C 1141 459.791 1139.07 469.977 1134.55 478.04 C 1125.25 476.625 1101.23 473.335 1092.64 471.083 C 1075.22 467.342 1054.98 464.353 1037.24 461.351 C 1021.35 458.81 1002.41 455.242 986.664 453.666 z"/>
<path transform="translate(0,0)" fill="rgb(238,200,92)" d="M 1037.24 461.351 C 1045.4 433.101 1046.63 403.3 1040.83 374.472 C 1038.75 364.05 1035.93 353.79 1032.37 343.774 C 1020.65 311.491 1007.22 288.672 1023.84 253.427 C 1044.12 210.402 1103.15 199.564 1141.45 224.047 C 1165.95 240.329 1182.62 276.52 1173.52 305.397 C 1171.99 310.246 1168.22 318.754 1165.48 322.261 C 1134.08 362.445 1101.1 394.59 1096.32 448.501 C 1095.88 453.443 1093.87 466.161 1092.64 471.083 C 1075.22 467.342 1054.98 464.353 1037.24 461.351 z"/>
<path transform="translate(0,0)" fill="rgb(245,232,198)" d="M 1059.13 251.785 C 1073.62 257.77 1088.6 280.331 1097.37 293.128 C 1110.64 275.143 1113.8 272.155 1131.38 258.729 C 1131.51 258.876 1131.65 259.022 1131.79 259.168 L 1132.47 259.914 C 1150.01 278.909 1139.41 311.284 1126.7 329.847 C 1115.64 346.004 1105.8 358.771 1097.78 376.768 C 1093.6 386.387 1089.77 396.158 1086.31 406.06 C 1083.49 414.263 1081.23 430.896 1075.99 436.628 L 1074.39 436.641 C 1071.77 431.398 1078.8 418.672 1079.64 412.699 C 1084.89 375.479 1092.34 356.424 1113.27 325.649 C 1117.86 319.669 1138.15 287.755 1124.93 284.263 C 1114.98 286.677 1106.55 303.079 1098.74 310.839 L 1097.88 311.689 C 1081.33 300.039 1088.47 289.173 1062.49 271.868 C 1060.43 302.166 1061.11 310.722 1072.46 339.429 C 1076.66 350.054 1073.99 409.417 1065.05 416.886 L 1063.56 415.901 C 1058.79 400.687 1065.54 368.862 1062.94 351.029 C 1060.12 331.696 1050.32 316.59 1049.33 297.144 C 1048.56 282.233 1049.1 263.605 1059.13 251.785 z"/>
<path transform="translate(0,0)" fill="rgb(178,226,231)" d="M 1077.18 165.396 C 1082.71 164.918 1099.72 163.918 1100.45 171.923 C 1099.59 173.144 1098.28 175.473 1096.67 175.649 C 1055.08 180.19 1010.13 195.692 990.157 235.748 C 987.221 241.636 984.076 247.743 981.088 253.766 C 978.593 258.645 978.278 260.503 973.972 262.826 C 970.674 262.95 970.306 262.841 967.494 261.109 C 960.17 250.817 978.504 220.76 985.287 212.415 C 1010.38 181.548 1038.21 169.579 1077.18 165.396 z"/>
<path transform="translate(0,0)" fill="rgb(49,207,232)" d="M 988.305 467.607 C 1029.83 478.091 1077.02 482.858 1119.18 491.161 C 1133.21 493.924 1131.5 507.534 1123.23 514.926 C 1101.97 521.695 1027.9 501.066 1002.46 499.253 C 981.238 497.74 979.245 483.989 988.305 467.607 z"/>
<path transform="translate(0,0)" fill="rgb(49,207,232)" d="M 988.85 512.828 C 1001.11 515.099 1109.87 534.1 1111.83 535.469 C 1117.07 542.429 1112.7 550.887 1107.32 556.268 C 1103 557.795 1097.67 558.152 1093.3 557.325 C 1079.94 554.802 994.101 542.451 987.372 536.04 C 985.05 533.79 983.68 530.734 983.546 527.503 C 983.314 521.543 985.105 517.27 988.85 512.828 z"/>
<path transform="translate(0,0)" fill="rgb(49,207,232)" d="M 1007.15 558.632 C 1027.93 563.324 1051.7 567.093 1071.72 572.563 C 1068.84 575.82 1065.92 578.347 1062.7 581.247 C 1036.28 598.995 1015.68 587.253 1007.15 558.632 z"/>
<path transform="translate(0,0)" fill="rgb(209,135,243)" d="M 1164.3 494.719 C 1169.16 494.646 1175.56 494.363 1180.28 494.682 C 1207.47 497.181 1218.66 503.368 1239.48 519.999 C 1245.82 526.534 1252.12 532.806 1257.89 539.866 C 1260.02 542.976 1262.38 547.278 1265.5 548.944 L 1268.39 548.835 C 1286.76 551.45 1300.05 554.945 1316.29 563.154 C 1352.9 581.666 1379.18 625.405 1380.55 666.023 C 1380.55 665.957 1389.11 668.904 1390.04 669.224 C 1386.86 671.399 1385.84 671.353 1387.15 675.799 C 1382.43 673.567 1376.84 671.674 1371.87 669.863 C 1365.94 625.26 1354.58 595.99 1313.16 572.475 C 1308.07 576.872 1303.1 575.163 1297.14 575.464 C 1281.02 576.277 1253.31 579.046 1241.04 566.785 C 1230.59 556.35 1223.79 541.428 1209.98 532.918 C 1201.61 527.763 1195.49 526.093 1186.01 523.034 C 1173.24 525.526 1155.71 538 1145.71 530.409 L 1145.87 526.497 C 1149.75 517.032 1149.17 514.491 1148.87 504.262 C 1148.5 501.958 1148.29 497.711 1148.09 495.231 C 1154.46 495.452 1157.95 495.313 1164.3 494.719 z"/>
<path transform="translate(0,0)" fill="rgb(98,44,148)" d="M 1164.3 494.719 C 1169.16 494.646 1175.56 494.363 1180.28 494.682 C 1207.47 497.181 1218.66 503.368 1239.48 519.999 C 1245.82 526.534 1252.12 532.806 1257.89 539.866 C 1260.02 542.976 1262.38 547.278 1265.5 548.944 L 1268.39 548.835 C 1286.76 551.45 1300.05 554.945 1316.29 563.154 C 1352.9 581.666 1379.18 625.405 1380.55 666.023 C 1380.55 665.957 1389.11 668.904 1390.04 669.224 C 1386.86 671.399 1385.84 671.353 1387.15 675.799 C 1382.43 673.567 1376.84 671.674 1371.87 669.863 C 1365.94 625.26 1354.58 595.99 1313.16 572.475 C 1296.03 563.089 1278.21 559.825 1258.98 557.599 C 1251.56 545.95 1242.35 535.541 1231.69 526.754 C 1204.48 503.959 1182.35 501.324 1148.87 504.262 C 1148.5 501.958 1148.29 497.711 1148.09 495.231 C 1154.46 495.452 1157.95 495.313 1164.3 494.719 z"/>
<path transform="translate(0,0)" fill="rgb(98,44,148)" d="M 808.912 467.669 C 813.146 465.934 823.246 460.032 828.749 457.474 C 854.091 445.694 873.286 443.734 900.676 443.861 C 913.098 445.086 925.984 445.867 938.004 449.144 C 944.036 450.895 961.542 456.989 965.987 460.87 C 961.11 470.893 963.143 480.219 961.002 486.1 C 952.26 481.982 947.165 479.998 952.192 469.404 C 952.85 468.028 953.528 466.662 954.227 465.307 C 907.515 444.85 837.938 448.864 799.536 484.974 C 790.867 484.804 777.335 483.879 769.031 484.938 C 747.013 487.745 724.469 497.297 706.341 509.942 C 671.549 534.211 636.273 547.217 631.776 595.858 C 601.173 607.245 600.828 615.01 582.351 635.172 C 581.263 621.412 589.617 618.058 598.353 609.391 C 605.048 602.748 611.75 596.174 619.938 591.334 L 619.82 593.04 L 620.579 593.034 C 623.761 588.003 628.282 573.958 631.096 567.173 C 634.007 560.993 636.357 557.814 640.234 552.266 C 651.557 536.978 660.453 529.959 676.267 519.762 C 682.95 515.833 687.135 513.143 693.453 508.577 C 698.084 505.196 701.988 502.781 706.901 499.797 C 711.685 497.121 716.08 494.391 720.732 491.49 C 742.706 481.978 769.404 470.862 793.397 478.811 C 797.516 475.109 804.185 470.877 808.912 467.669 z"/>
<path transform="translate(0,0)" fill="rgb(173,63,216)" d="M 1085.04 584.023 L 1085.43 598.608 C 1082.6 601.106 1081.64 602.433 1077.95 603.099 L 1076.59 602.054 C 1076.46 599.325 1076.93 597.431 1075.37 595.938 C 1072.76 597.366 1073.17 597.719 1070.9 597.314 C 1071.15 596.878 1083.67 585.413 1085.04 584.023 z"/>
<path transform="translate(0,0)" fill="rgb(68,34,120)" d="M 745.484 766.657 C 738.267 763.562 728.448 746.293 725.487 738.901 C 707.363 693.656 734.802 635.959 779.499 618.572 C 795.534 612.335 820.233 612.731 835.862 620.467 C 853.748 629.355 864.638 643.069 871.284 661.645 C 880.15 686.423 876.083 711.184 864.969 734.539 C 855.474 754.49 837.636 772.589 816.439 779.846 C 814.612 780.472 813.462 780.676 811.569 780.551 C 811.047 785.973 792.391 788.442 787.649 788.129 C 769.893 786.957 757.32 779.429 745.484 766.657 z"/>
<path transform="translate(0,0)" fill="rgb(254,254,254)" d="M 745.484 766.657 C 711.422 713.675 748.376 613.174 821.473 629.322 C 849.742 635.567 866.427 659.442 868.871 687.236 C 863.318 675.927 854.865 661.886 841.731 658.791 C 777.368 643.623 746.693 758.765 811.569 780.551 C 811.047 785.973 792.391 788.442 787.649 788.129 C 769.893 786.957 757.32 779.429 745.484 766.657 z"/>
<path transform="translate(0,0)" fill="rgb(254,254,254)" d="M 830.768 668.949 C 848.605 670.807 847.894 689.469 832.851 697.685 L 832.301 697.589 C 825.754 696.515 820.863 694.465 818.566 687.472 C 817.377 683.813 817.79 679.823 819.704 676.486 C 822.515 671.488 825.741 670.475 830.768 668.949 z"/>
<path transform="translate(0,0)" fill="rgb(68,34,120)" d="M 1001.45 832.804 C 994.768 829.444 984.854 809.183 982.742 802.243 C 961.719 733.163 1034.48 663.839 1101.48 697.574 C 1118.82 706.306 1130.11 723.089 1135.65 741.235 C 1149.39 788.26 1116.07 839.655 1070.26 853.216 C 1069.54 853.346 1068.82 853.476 1068.09 853.606 C 1042.85 866.817 1017.38 853.452 1001.45 832.804 z"/>
<path transform="translate(0,0)" fill="rgb(254,254,254)" d="M 1001.45 832.804 C 971.053 771.65 1017.68 681.816 1088.53 706.712 C 1103.99 712.078 1116.69 723.364 1123.83 738.089 C 1128.69 748.316 1129.63 757.651 1129.82 768.742 C 1128.16 764.481 1126.46 760.545 1124.57 756.567 C 1115.45 737.303 1090.17 725.228 1069.9 734.785 C 1023 756.892 1016.11 832.643 1068.09 853.606 C 1042.85 866.817 1017.38 853.452 1001.45 832.804 z"/>
<path transform="translate(0,0)" fill="rgb(254,254,254)" d="M 1087.97 744.045 C 1089.42 743.966 1090.87 743.9 1092.33 743.943 C 1096.55 744.036 1100.53 745.904 1103.3 749.088 C 1110.65 757.65 1104.82 766.719 1097.44 772.488 C 1096.04 772.743 1092.37 773.22 1090.97 773.112 C 1087.22 772.797 1083.79 770.863 1081.59 767.817 C 1075.43 759.227 1080.53 749.664 1087.97 744.045 z"/>
<path transform="translate(0,0)" fill="rgb(68,34,120)" d="M 839.933 791.045 C 849.131 795.897 857.357 801.353 867.228 805.087 C 908.461 820.687 940.424 824.989 983.874 820.765 C 983.993 834.008 986.049 843.552 984.135 857.606 C 979.946 888.365 963.221 911.294 939.38 929.726 C 872.185 977.416 801.264 911.144 808.415 838.87 C 810.453 818.264 823.911 803.069 839.933 791.045 z"/>
<path transform="translate(0,0)" fill="rgb(233,40,131)" d="M 912.587 871.251 C 930.071 869.75 950.845 875.085 967.275 880.986 C 959.311 904.874 930.975 923.568 907.341 929.336 C 891.144 931.899 859.729 926.232 851.707 907.601 C 851.158 906.325 851.575 901.433 852.706 900.58 C 868.656 888.549 892.856 874.501 912.587 871.251 z"/>
<path transform="translate(0,0)" fill="rgb(49,207,232)" d="M 1182.27 568.255 C 1186.73 555.164 1198.97 541.758 1210.64 558.138 C 1217.02 567.1 1208.34 573.404 1206.77 580.968 C 1219.26 600.371 1247.34 591.794 1259.35 609.6 C 1271.53 627.67 1264.28 653.513 1260.5 673.102 C 1258.82 681.833 1255.95 693.399 1259.41 701.918 C 1268.19 723.597 1340.59 721.007 1359.27 749.438 C 1369.67 765.266 1357.85 795.704 1354.04 813.745 C 1348.27 824.025 1343.33 838.308 1346.17 850.324 C 1348.14 858.694 1356.61 858.103 1362.91 854.431 C 1352.33 849.801 1361.5 838.858 1367.21 834.304 C 1374.64 828.374 1377.56 827.163 1386.69 824.432 C 1393.47 826.246 1414.07 835.117 1409.56 844.39 L 1408.61 844.681 L 1407.54 846.999 C 1412.15 882.819 1383.31 899.009 1380.87 872.54 L 1378.22 868.207 C 1374.74 870.493 1368.94 872.921 1364.97 874.728 C 1353.61 873.994 1336.23 868.586 1332.06 856.586 C 1324.53 834.9 1336.13 807.378 1344.93 787.439 C 1348.11 780.242 1350.96 769.503 1347.5 761.768 C 1336.73 741.245 1290.78 737.389 1270.55 730.895 C 1257.69 726.765 1244.62 715.42 1238.79 703.476 C 1238.93 677.458 1252.49 646.612 1244.66 621.169 C 1241.22 609.985 1222.26 611.666 1213.9 607.969 C 1204.1 603.632 1186.62 578.036 1182.27 568.255 z"/>
<path transform="translate(0,0)" fill="rgb(114,56,154)" d="M 1386.69 824.432 C 1393.47 826.246 1414.07 835.117 1409.56 844.39 L 1408.61 844.681 L 1407.54 846.999 C 1406.66 845.835 1405.75 844.688 1404.82 843.558 C 1400.79 838.617 1386.83 829.999 1381.36 835.688 C 1374.08 843.26 1373.48 850.181 1362.91 854.431 C 1352.33 849.801 1361.5 838.858 1367.21 834.304 C 1374.64 828.374 1377.56 827.163 1386.69 824.432 z"/>
<path transform="translate(0,0)" fill="rgb(173,63,216)" d="M 1378.22 868.207 L 1379.02 867.528 C 1387.29 860.427 1381.76 852.664 1388.78 849.668 C 1392.67 857.377 1387.07 867.493 1380.87 872.54 L 1378.22 868.207 z"/>
<path transform="translate(0,0)" fill="rgb(49,207,232)" d="M 1045.6 896.181 C 1066.23 894.222 1054.13 908.039 1064.04 912.611 C 1070.27 913.645 1081.51 908.308 1087.04 907.765 C 1106.75 905.829 1130.88 905.415 1148.91 913.648 C 1166.81 921.825 1172.86 938.106 1178.97 954.964 C 1194.7 952.399 1275.18 946.061 1269.69 983.301 C 1269.12 987.11 1260.83 988.828 1258.26 986.932 C 1252.57 982.733 1247.37 976.209 1240.47 973.485 C 1223.12 967.415 1195.87 971.521 1179.59 977.915 L 1175.09 985.386 C 1165.58 1002.19 1162.71 1007.9 1148.25 1020.72 L 1154.13 1030.13 C 1142.41 1050.08 1120.24 1049.24 1112.12 1029.18 C 1105.72 1013.39 1131.97 1008.45 1140.63 1006.19 C 1156.61 990.196 1169.05 952.885 1148.79 935.242 C 1126.32 915.665 1093.04 925.936 1066.59 928.577 C 1047.63 930.47 1029.83 911.471 1045.6 896.181 z"/>
<path transform="translate(0,0)" fill="rgb(49,207,232)" d="M 1173.5 611.149 L 1185.49 611.053 C 1186.07 611.403 1186.66 611.758 1187.24 612.118 C 1220.94 633.08 1211.94 644.246 1207.13 678.723 C 1206.2 691.125 1206.83 701.855 1205.34 714.332 C 1203.98 725.792 1197.58 746.183 1209.61 753.509 C 1228.66 765.111 1235.3 748.081 1248.32 745.623 C 1265.7 742.341 1274.74 772.056 1262.05 783.915 C 1252.4 793.767 1251.39 794.44 1239.14 796.215 C 1221.04 791.207 1227.39 786.167 1223.42 774.342 C 1219.35 770.692 1211.66 771.212 1206.73 769.401 C 1182.6 759.26 1189.98 740.424 1187.71 720.905 C 1184.32 691.634 1203.5 661.983 1191.82 635.543 C 1189.86 631.098 1185.19 627.19 1181.13 626.107 C 1172.38 627.949 1174.76 635.215 1175.46 642.484 C 1170.44 646.665 1163.58 651.488 1157.11 647.538 C 1148.6 642.341 1149.35 628.751 1154.33 621.327 C 1159.47 613.672 1165.27 612.796 1173.5 611.149 z"/>
<path transform="translate(0,0)" fill="rgb(49,207,232)" d="M 639.919 684.951 L 640.27 681.85 L 642.116 680.948 C 649.265 683.83 650.732 698.16 646.714 704.546 L 642.105 704.897 C 644.085 711.92 650.757 739.945 655.748 739.306 C 670.781 737.383 680.141 732.011 687.682 755.316 C 678.082 790.239 663.955 763.065 654.937 762.467 C 649.939 766.721 642.76 778.76 637.91 784.183 C 633.835 788.74 629.81 792.92 625.874 797.615 C 632.748 801.131 639.663 800.361 643.077 807.306 C 642.504 812.7 639.979 815.299 634.4 816.471 C 629.97 817.359 625.371 816.364 621.705 813.724 C 615.999 809.648 614.109 803.336 613.14 796.751 C 610.704 780.206 626.08 776.088 634.647 764.684 C 645.87 749.746 637.458 735.367 632.292 720.09 C 631.281 717.102 630.387 710.022 629.944 706.638 C 617.125 708.812 612.822 701.354 617.31 689.108 C 619.093 684.243 623.656 683.038 628.292 681.304 L 639.919 684.951 z"/>
<path transform="translate(0,0)" fill="rgb(130,70,168)" d="M 639.919 684.951 L 640.27 681.85 L 642.116 680.948 C 649.265 683.83 650.732 698.16 646.714 704.546 L 642.105 704.897 C 641.869 699.906 641.89 688.939 639.919 684.951 z"/>
<path transform="translate(0,0)" fill="rgb(49,207,232)" d="M 1006.69 948.042 C 1016.98 947.156 1026.7 949.906 1032.92 959.008 C 1038.43 967.067 1037.42 971.372 1035.73 980.584 C 1041.43 986.81 1044.56 989.697 1052.04 993.53 C 1069.02 993.095 1081.97 990.627 1095.66 979.879 C 1101.74 975.106 1123.76 958.379 1128.38 971.918 C 1127.6 977.385 1123.23 981.401 1119.29 984.856 C 1110.16 992.412 1096.87 1000.11 1087 1003.52 C 1062.9 1011.86 1048.11 1012.25 1027.06 998.282 C 1024.1 996.321 1010.68 993.394 1005.93 990.608 C 995.362 984.417 994.15 981.185 990.226 969.823 C 994.143 957.048 995.022 954.712 1006.69 948.042 z"/>
<path transform="translate(0,0)" fill="rgb(49,207,232)" d="M 1302.11 600.258 C 1325.46 604.022 1311.13 636.46 1308.44 650.326 C 1306.27 661.494 1305.5 663.455 1307.83 674.775 C 1317.33 680.779 1326.71 681.76 1337.68 679.564 C 1344.95 677.857 1358.87 676.402 1362.84 685.009 C 1369.45 699.358 1368.08 708.127 1354.58 715.369 C 1339.54 716.859 1337.38 706.893 1336.94 694.413 C 1300.57 694.887 1277.02 689.892 1292.66 648.528 C 1294.09 644.74 1295.18 638.591 1295.8 634.536 C 1286.12 628.455 1279.5 619.195 1286.62 607.339 C 1290.01 601.706 1296.07 601.279 1302.11 600.258 z"/>
<path transform="translate(0,0)" fill="rgb(49,207,232)" d="M 1287.08 801.915 C 1294.43 801.59 1306.33 804.943 1309.94 811.812 C 1318.15 828.504 1287.43 843.199 1276.09 849.412 C 1244.18 866.88 1229 866.137 1195.75 855.716 C 1188.01 854.024 1177.32 853.057 1173.75 845.22 C 1173.74 841.144 1173.27 842.713 1175.56 839.307 C 1184.41 833.88 1203.53 843.577 1214.54 845.594 C 1230.33 848.949 1255.36 844.105 1269.27 835.972 C 1281.12 829.045 1268.19 813.78 1286.04 802.559 L 1287.08 801.915 z"/>
<path transform="translate(0,0)" fill="rgb(49,207,232)" d="M 935.04 611.088 C 953.346 609.409 964.871 624.106 962.692 642.334 C 962.121 647.106 954.914 649.795 950.683 651.912 C 947.129 660.728 934.582 687.509 938.892 695.997 C 945.144 708.312 951.503 710.977 939.3 724.196 C 934.126 725.246 909.558 724.368 912.236 716.611 C 919.177 699.458 926.111 685.472 931.649 667.129 C 938.337 644.98 906.782 625.462 935.04 611.088 z"/>
<path transform="translate(0,0)" fill="rgb(68,34,120)" d="M 1277.26 862.578 C 1283.31 863.289 1284.03 867.687 1286.91 873.028 C 1290.04 878.938 1296.17 885.957 1301.07 890.602 C 1353.65 940.429 1306.73 1058.24 1228.76 1030.03 C 1221.9 1027.54 1212.04 1023.04 1204.91 1023.82 L 1198.74 1024.85 C 1195.4 1023.57 1196.41 1024.52 1194.89 1021.55 L 1195.82 1019.73 C 1209.19 1010.3 1234.6 1024.85 1249.47 1025.78 C 1263.51 1026.65 1276.22 1022.01 1286.65 1012.65 C 1297.24 1003.16 1303.95 990.603 1309.05 977.515 C 1335.43 909.81 1274.92 893.026 1277.19 863.332 C 1277.21 863.08 1277.24 862.829 1277.26 862.578 z"/>
<path transform="translate(0,0)" fill="rgb(49,207,232)" d="M 1207.41 888.087 C 1219.4 887.75 1221.74 890.017 1230.66 898.153 C 1246.52 900.365 1257.38 901.221 1273.38 901.158 C 1272.51 895.655 1271.96 894.737 1274.13 889.739 L 1276.41 889.026 C 1282.23 893.545 1279.13 899.985 1285.62 907.537 C 1292.79 915.882 1297.42 927.434 1287.22 935.99 L 1283.38 935.482 C 1278.81 932.625 1277.25 927.297 1275.05 922.249 C 1254.23 909.843 1234.57 917.099 1212.7 917.534 C 1191.38 917.957 1182.91 898.016 1207.41 888.087 z"/>
<path transform="translate(0,0)" fill="rgb(49,207,232)" d="M 752.621 858.048 C 755.234 857.821 760.719 857.348 762.924 858.34 C 786.274 868.857 754.245 898.72 753.032 912.776 C 751.962 925.184 754.792 933.334 755.475 945.192 C 755.794 950.726 754.457 951.874 751.209 955.441 C 732.733 965.02 729.9 936.338 732.5 926.18 C 736.402 910.933 741.411 867.204 752.621 858.048 z"/>
<path transform="translate(0,0)" fill="rgb(114,56,154)" d="M 727.389 564.996 C 751.11 559.691 752.642 543.994 782.367 548.405 C 780.692 552.445 781.193 553.161 777.229 555.004 C 773.499 561.264 764.587 582.693 753.479 574.944 C 750.435 572.821 748.5 568.897 747.361 565.389 C 729.123 574.059 726.258 575.777 706.255 577.269 C 708.064 580.797 711.52 579.585 716.075 583.916 C 714.138 585.702 713.817 586.348 712.356 588.584 L 705.3 582.264 C 700.656 581.099 693.734 580.176 688.855 579.375 C 690.212 574.921 691.39 569.43 695.395 567.132 C 694.191 550.867 709.885 547.842 721.587 554.999 C 726.226 557.837 726.263 559.913 727.389 564.996 z"/>
<path transform="translate(0,0)" fill="rgb(49,207,232)" d="M 695.395 567.132 C 694.191 550.867 709.885 547.842 721.587 554.999 C 726.226 557.837 726.263 559.913 727.389 564.996 C 715.067 568.527 708.353 570.41 695.395 567.132 z"/>
<path transform="translate(0,0)" fill="rgb(49,207,232)" d="M 747.361 565.389 C 758.736 557.969 764.307 556.89 777.229 555.004 C 773.499 561.264 764.587 582.693 753.479 574.944 C 750.435 572.821 748.5 568.897 747.361 565.389 z"/>
<path transform="translate(0,0)" fill="rgb(130,70,168)" d="M 688.855 579.375 C 695.873 577.688 699.185 577.595 706.255 577.269 C 708.064 580.797 711.52 579.585 716.075 583.916 C 714.138 585.702 713.817 586.348 712.356 588.584 L 705.3 582.264 C 700.656 581.099 693.734 580.176 688.855 579.375 z"/>
<path transform="translate(0,0)" fill="rgb(49,207,232)" d="M 787.808 932.589 C 817.322 937.763 810.376 956.323 819.368 967.448 C 826.204 975.905 846.679 974.655 858.538 989.754 C 856.35 998.467 855.085 1007.61 852.748 1016.84 C 833.711 1019.24 841.738 1000.98 837.964 991.219 C 833.702 980.197 816.885 988.336 807.943 974.743 C 802.023 965.745 802.537 965.666 799.126 955.25 C 787.43 950.172 775.833 946.419 787.808 932.589 z"/>
<path transform="translate(0,0)" fill="rgb(49,207,232)" d="M 852.769 478.541 C 860.499 475.535 892.526 472.924 898.875 478.593 C 898.733 479.751 898.329 482.289 898.427 483.315 C 904.627 484.94 907.724 486.175 906.606 492.972 C 901.288 500.704 897.378 500.281 889.01 499.862 C 890.731 502.258 892.706 506.103 892.28 509.156 C 889.766 510.459 887.577 509.909 885.751 507.86 C 873.404 493.999 870.887 495.546 853.406 492.714 L 851.721 489.924 L 850.148 489.654 C 845.465 495.124 832.833 501.418 827.975 494.508 C 828.964 491.315 831.235 489.298 833.515 486.749 C 837.419 483.903 847.848 480.369 852.769 478.541 z"/>
<path transform="translate(0,0)" fill="rgb(130,70,168)" d="M 833.515 486.749 C 844.509 485.601 870.259 485.4 879.488 492.494 C 882.908 495.122 884.237 497.819 889.01 499.862 C 890.731 502.258 892.706 506.103 892.28 509.156 C 889.766 510.459 887.577 509.909 885.751 507.86 C 873.404 493.999 870.887 495.546 853.406 492.714 L 851.721 489.924 L 850.148 489.654 C 845.465 495.124 832.833 501.418 827.975 494.508 C 828.964 491.315 831.235 489.298 833.515 486.749 z"/>
<path transform="translate(0,0)" fill="rgb(130,70,168)" d="M 852.769 478.541 C 860.499 475.535 892.526 472.924 898.875 478.593 C 898.733 479.751 898.329 482.289 898.427 483.315 C 892.021 485.106 872.474 484.806 866.172 482.452 C 861.348 480.649 859.731 479.65 853.873 478.712 L 852.769 478.541 z"/>
<path transform="translate(0,0)" fill="rgb(68,34,120)" d="M 1098.94 635.228 C 1138.42 630.943 1151.88 653.85 1150.79 689.777 C 1147.93 684.357 1144.43 680.238 1140.66 675.453 C 1113.93 640.74 1104.5 658.93 1074.23 645.892 L 1073.43 642.449 C 1073.41 642.465 1097.7 635.419 1098.94 635.228 z"/>
<path transform="translate(0,0)" fill="rgb(49,207,232)" d="M 675.899 883.105 C 681.858 882.61 695.434 880.706 697.548 887.968 C 700.108 896.766 711.018 888.297 714.645 897.239 C 718.053 905.638 711.582 911.902 704.747 915.252 C 696.525 917.29 689.63 919.32 681.286 916.842 C 664.874 911.967 656.911 891.926 675.899 883.105 z"/>
<path transform="translate(0,0)" fill="rgb(68,34,120)" d="M 811.289 534.718 C 824.041 527.541 833.648 523.34 848.934 527.685 C 855.786 529.612 862.177 532.905 867.723 537.366 C 867.336 542.877 866.784 548.904 866.683 554.383 C 855.707 546.724 842.696 540.713 829.221 543.261 C 815.956 545.769 808.291 549.288 806.82 563.176 C 803.386 566.981 793.072 563.149 788.048 561.934 C 792.699 553.812 794.826 551.371 800.539 544.177 C 804.104 541.003 807.687 537.85 811.289 534.718 z"/>
<path transform="translate(0,0)" fill="rgb(49,207,232)" d="M 633.119 842.023 C 633.723 841.963 634.327 841.904 634.93 841.845 C 641.808 844.248 668.774 842.552 672.823 846.065 C 676.896 858.716 662.603 862.12 656.13 867.686 C 633.209 897.075 610.542 858.977 633.119 842.023 z"/>
<path transform="translate(0,0)" fill="rgb(49,207,232)" d="M 1384.41 918.943 C 1412.08 923.333 1394.25 959.352 1371.3 958.346 C 1337.54 945.183 1366.86 928.911 1384.41 918.943 z"/>
<path transform="translate(0,0)" fill="rgb(49,207,232)" d="M 1388.5 729.74 C 1405.3 729.555 1411.45 732.687 1416.75 748.625 C 1413.85 757.883 1411.8 761.557 1404.27 767.281 C 1401.5 768.369 1401.25 768.629 1398.43 768.226 C 1384.23 753.491 1371.72 763.421 1381.2 735.564 C 1383.38 733.684 1386.2 731.571 1388.5 729.74 z"/>
<path transform="translate(0,0)" fill="rgb(49,207,232)" d="M 1124.31 848.048 C 1148.42 846.358 1161.57 865.727 1141.95 884.496 C 1124.65 888.506 1111.82 873.308 1115.46 856.861 C 1116.59 851.78 1120.1 850.361 1124.31 848.048 z"/>
<path transform="translate(0,0)" fill="rgb(49,207,232)" d="M 912.823 543.181 C 921.227 542.686 932.514 542.773 934.873 552.582 C 937.715 564.404 925.376 568.009 917.839 570.312 C 916.948 573.979 915.912 576.321 914.495 579.758 C 911.121 585.004 908.984 587.226 902.926 585.42 C 895.678 578.609 899.591 563.844 902.69 555.719 C 905.237 549.041 906.18 546.101 912.823 543.181 z"/>
<path transform="translate(0,0)" fill="rgb(114,56,154)" d="M 716.075 583.916 C 719.785 587.3 718.218 599.181 717.905 604.654 C 712.412 614.372 710.313 614.632 701.22 621.134 C 697.901 623.321 692.18 626.855 689.44 629.366 C 665.316 640.623 666.261 671.511 664.839 694.324 C 664.669 697.056 664.543 696.51 662.588 697.982 C 659.743 697.495 660.795 697.964 658.596 695.498 C 656.881 685.915 657.69 674.898 659.128 665.269 C 666.567 615.46 702.919 622.673 711.54 599.434 C 712.786 596.077 713.918 591.941 712.356 588.584 C 713.817 586.348 714.138 585.702 716.075 583.916 z"/>
<path transform="translate(0,0)" fill="rgb(49,207,232)" d="M 919.279 981.046 C 924.195 981.625 927.542 983.834 929.061 987.791 C 934.117 1000.96 928.885 1013.61 919.676 1023.06 C 918.485 1024.28 918.52 1025.18 916.05 1027.14 C 915.034 1026.78 914.032 1026.37 913.047 1025.93 C 902.348 1021.16 898.76 1002.55 903.515 992.575 C 907.366 984.494 911.472 983.924 919.279 981.046 z"/>
<path transform="translate(0,0)" fill="rgb(49,207,232)" d="M 689.44 629.366 C 692.18 626.855 697.901 623.321 701.22 621.134 L 704.777 632.933 C 703.888 634.917 699.313 644.833 699.522 646.092 C 700.446 651.651 704.99 669.112 696.068 671.232 C 680.049 675.038 677.717 660.883 678.66 650.544 C 679.617 645.634 681.207 642.048 684.284 638.172 L 689.44 629.366 z"/>
<path transform="translate(0,0)" fill="rgb(96,181,235)" d="M 678.66 650.544 C 679.617 645.634 681.207 642.048 684.284 638.172 C 688.053 640.202 688.782 640.462 690.75 644.199 C 690.895 652.246 683.608 649.884 678.66 650.544 z"/>
<path transform="translate(0,0)" fill="rgb(49,207,232)" d="M 699.007 810.94 C 703.035 811.245 706.073 813.077 709.358 815.312 C 713.574 823.067 705.631 828.892 700.4 834.609 C 700.545 838.71 718.241 838.277 716.533 847.209 C 714.014 849.902 711.813 850.804 708.593 852.479 C 699.856 853.445 697.081 851.001 690.112 846.635 C 671.102 834.725 689.948 823.265 699.007 810.94 z"/>
<path transform="translate(0,0)" fill="rgb(49,207,232)" d="M 999.783 1061.97 C 997.633 1061.98 994.493 1061.78 993.037 1062.97 L 1000.82 1064.93 L 1000.48 1064.72 L 999.643 1065.83 C 998.914 1065.84 998.185 1065.83 997.456 1065.81 C 965.722 1065.02 990.095 1013.3 1009.98 1043.85 C 1009.74 1052.43 1010.84 1062.25 999.783 1061.97 z"/>
<path transform="translate(0,0)" fill="rgb(121,143,228)" d="M 1009.98 1043.85 C 1009.74 1052.43 1010.84 1062.25 999.783 1061.97 C 1003.7 1059.11 1003.2 1048.23 1009.98 1043.85 z"/>
<path transform="translate(0,0)" fill="rgb(98,44,148)" d="M 1290.36 775.139 C 1291.35 775.058 1292.35 774.99 1293.34 774.935 C 1300 774.574 1307.11 775.852 1311.94 780.617 C 1318.68 787.268 1326.08 803.636 1318.5 811.465 C 1315.64 811.62 1316.91 812 1314.6 810.221 C 1314.72 805.075 1314.43 803.495 1313.52 798.414 C 1302.78 768.895 1291.15 787.034 1276.96 788.673 L 1275.55 787.37 L 1275.54 785.112 C 1278.92 780.139 1285.01 777.418 1290.36 775.139 z"/>
<path transform="translate(0,0)" fill="rgb(114,56,154)" d="M 1354.04 813.745 C 1361.58 804.42 1360.11 784.797 1363.62 780.053 C 1372.01 782.729 1367.65 800.101 1366.18 806.83 C 1365.26 810.134 1353.81 835.915 1352.12 837.366 C 1349.62 836.71 1350.44 836.958 1348.6 834.058 C 1349.78 827.385 1354.37 818.73 1354.04 813.745 z"/>
<path transform="translate(0,0)" fill="rgb(98,44,148)" d="M 1179.09 586.96 C 1183.87 586.833 1186.74 586.373 1190.09 589.495 C 1188.82 597.372 1170.25 599.71 1163.76 603.238 C 1159.65 605.471 1157.75 607.243 1154.28 610.354 C 1151.52 612.738 1150.69 613.904 1147.11 614.434 L 1146.07 613.182 C 1150.7 594.322 1169.34 594.311 1178.22 587.625 L 1179.09 586.96 z"/>
<path transform="translate(0,0)" fill="rgb(98,44,148)" d="M 989.973 999.091 C 1004.3 998.05 1026.93 1003.06 1035 1017.2 C 1036.14 1019.2 1035.21 1020.36 1034.4 1022.31 C 1025.66 1017.89 1022.22 1013.1 1011.16 1009.06 C 1002.75 1005.99 992.583 1007.95 988.475 1005.39 C 987.913 1001.87 988.104 1002.95 989.973 999.091 z"/>
<path transform="translate(0,0)" fill="rgb(49,207,232)" d="M 782.367 548.405 C 787.027 535.775 797.362 516.373 811.289 534.718 C 807.687 537.85 804.104 541.003 800.539 544.177 L 795.703 547.798 C 792.836 549.911 791.354 550.128 787.906 549.536 C 786.051 549.204 784.204 548.827 782.367 548.405 z"/>
<path transform="translate(0,0)" fill="rgb(173,63,216)" d="M 693.232 541.917 L 693.968 542.553 C 694.052 543.839 693.843 546.362 692.936 547.22 C 686.42 553.379 669.313 575.259 661.647 577.168 C 660.565 575.583 660.919 576.053 660.479 574.034 C 664.297 562.635 683.328 549.071 693.232 541.917 z"/>
<path transform="translate(0,0)" fill="rgb(49,207,232)" d="M 693.056 589.364 C 704.538 590.94 708.95 593.709 705.508 605.824 L 703.752 606.696 L 701.944 606.079 C 697.073 600.933 694.466 596.286 693.056 589.364 z"/>
<path transform="translate(0,0)" fill="rgb(68,34,120)" fill-opacity="0.352941" d="M 669.806 991.636 C 664.892 964.176 660.346 977.101 647.261 963.121 C 648.019 960.757 647.307 961.758 649.917 960.389 C 654.125 960.941 657.582 964.362 661.762 966.776 C 663.758 964.108 660.884 966.102 662.735 959.492 C 664.308 963.621 665.874 968.043 667.705 972.045 C 687.969 1016.33 742.091 1030.45 784.994 1013.85 C 787.996 1012.68 790.985 1011.49 793.961 1010.25 C 820.551 1065.63 892.171 1096.36 948.685 1069.29 C 982.46 1102.85 1034.15 1125.65 1081.51 1109.53 C 1090.94 1106.32 1098.02 1102.3 1106.52 1097.37 C 1125.72 1107.29 1141.58 1109.78 1163.08 1107.75 C 1194.85 1104.75 1215.76 1093.11 1237.89 1070.9 C 1242.83 1073.78 1247.61 1076.42 1252.74 1078.97 C 1304.27 1104.55 1371.4 1073.93 1398.86 1026.25 C 1399.29 1025.53 1399.7 1024.8 1400.11 1024.07 C 1405.15 1018.33 1405.84 1012.04 1400.88 1006.21 L 1401.79 1004.36 C 1433.23 1012.1 1463.99 1033.05 1478.62 1062.56 C 1476.32 1063.51 1475.05 1064.55 1473.21 1063.5 C 1470.22 1061.8 1469.9 1057.24 1467.16 1055.3 C 1457.18 1048.25 1439.91 1033.48 1429.18 1029.09 L 1427.73 1029.83 C 1427.82 1033.42 1428.24 1032.81 1430.93 1036.02 C 1409.98 1030.42 1411.19 1035.48 1400.09 1052.83 C 1370.84 1098.59 1307.13 1119.77 1256.21 1100.27 C 1253.05 1099.05 1248.41 1097.85 1245.13 1097.05 C 1233.53 1099.58 1222.54 1109.47 1212.01 1115.13 C 1201.69 1120.67 1192.35 1123.74 1181 1126.23 C 1172.93 1125.47 1162.55 1128.08 1154.94 1127.81 C 1141.24 1127.32 1122.92 1122.69 1109.49 1122.94 C 1100.4 1123.1 1093.42 1130.4 1087.36 1133.83 L 1079.43 1134.58 C 1079.02 1133.74 1078.9 1133.43 1078.52 1132.85 C 1077.49 1131.29 1075.85 1130.22 1074 1129.91 C 1072.44 1129.65 1063.66 1130.35 1061.57 1130.62 C 1048.98 1132.26 1038.89 1131.21 1026.7 1127.52 C 1019.68 1125.4 1007.21 1121.52 1001.09 1117.78 C 987.023 1109.17 964.29 1092.55 948.47 1088.51 C 919.645 1097.69 903.434 1095.38 875.306 1090.36 C 860.967 1087.8 848.995 1076.13 836.006 1072.8 C 831.738 1073.99 832.834 1073.86 829.468 1077.63 C 825.456 1078.85 825.118 1077.95 820.52 1076.71 C 820.852 1076.42 822.654 1069.41 823.321 1067.73 C 822.079 1064.63 795.27 1034.57 792.664 1033.95 C 781.628 1031.31 767.76 1039.1 754.599 1039.16 C 713.321 1039.38 695.878 1017.69 669.806 991.636 z"/>
<path transform="translate(0,0)" fill="url(#Gradient8)" d="M 428.185 686.467 C 434.968 675.656 446.505 672.736 457.364 679.905 L 458.321 679.86 C 460.41 682.759 462.807 685.778 464.305 688.979 C 464.735 694.897 464.435 698.241 459.114 702.113 L 455.474 705.362 C 457.427 712.518 456.243 713.493 464.022 715.443 C 467.952 709.402 471.04 708.733 477.648 706.478 C 486.861 705.493 492.961 706.986 501.075 711.801 C 511.739 723.41 511.977 734.915 508.514 749.644 C 498.21 771.786 496.138 768.127 481.646 782.884 C 481.212 787.217 479.952 797.306 480.778 801.128 C 480.698 824.355 491.689 848.259 508.568 864.082 C 520.951 875.846 535.678 880.4 547.647 893.497 C 556.211 905.18 559.007 909.911 563.766 923.907 C 532.985 921.429 503.769 909.306 480.277 889.263 C 468.562 879.664 458.515 864.754 451.78 851.254 L 448.825 844.111 C 445.629 833.272 443.751 824.887 442.907 813.641 C 442.723 806.92 443.615 798.814 444.171 792.008 C 436.852 790.123 433.484 788.546 426.884 784.938 C 421.785 780.713 419.195 777.939 414.677 773.024 L 412.935 769.277 L 412.617 768.146 C 416.943 764.927 424.308 761.7 429.536 760.172 C 424.014 756.914 427.055 753.892 425.347 749.064 L 422.111 751.627 C 426.589 741.921 422.3 740.454 418.727 731.813 L 418.481 731.206 C 420.076 726.251 417.815 724.814 418.745 720.752 C 419.719 716.498 424.359 717.586 426.479 713.045 C 422.892 702.161 423.964 696.843 428.185 686.467 z"/>
<path transform="translate(0,0)" fill="rgb(114,56,154)" d="M 428.185 686.467 C 434.968 675.656 446.505 672.736 457.364 679.905 L 458.321 679.86 C 460.41 682.759 462.807 685.778 464.305 688.979 C 464.735 694.897 464.435 698.241 459.114 702.113 L 455.474 705.362 C 457.427 712.518 456.243 713.493 464.022 715.443 L 463.852 716.694 C 460.973 738.665 475.039 729.637 481.259 734.908 C 483.793 744.436 478.62 759.658 467.121 761.205 C 454.105 762.957 442.69 759.611 429.536 760.172 C 424.014 756.914 427.055 753.892 425.347 749.064 L 422.111 751.627 C 426.589 741.921 422.3 740.454 418.727 731.813 L 418.481 731.206 C 420.076 726.251 417.815 724.814 418.745 720.752 C 419.719 716.498 424.359 717.586 426.479 713.045 C 422.892 702.161 423.964 696.843 428.185 686.467 z"/>
<path transform="translate(0,0)" fill="rgb(209,135,243)" d="M 428.185 686.467 C 434.968 675.656 446.505 672.736 457.364 679.905 L 458.321 679.86 C 460.41 682.759 462.807 685.778 464.305 688.979 C 464.735 694.897 464.435 698.241 459.114 702.113 L 455.474 705.362 C 452.973 704.049 451.955 702.657 449.978 700.576 L 447.468 719.116 C 447.011 716.839 445.66 709.377 444.945 707.545 C 441.239 719.068 445.034 715.343 437.355 727.839 C 429.514 721.124 430.229 717.143 426.479 713.045 C 422.892 702.161 423.964 696.843 428.185 686.467 z"/>
<path transform="translate(0,0)" fill="rgb(173,63,216)" d="M 457.364 679.905 L 458.321 679.86 C 460.41 682.759 462.807 685.778 464.305 688.979 C 464.735 694.897 464.435 698.241 459.114 702.113 L 455.474 705.362 C 452.973 704.049 451.955 702.657 449.978 700.576 C 455.915 691.182 453.267 688.719 457.364 679.905 z"/>
<path transform="translate(0,0)" fill="rgb(173,63,216)" d="M 440.822 737.521 C 446.645 739.315 458.715 749.4 472.16 754.014 C 470.616 755.178 467.256 757.109 465.479 758.208 C 464.914 759.339 464.996 758.92 463.51 759.761 C 453.983 760.266 439.296 753.96 436.643 743.963 C 437.385 739.972 437.493 740.891 440.822 737.521 z"/>
<path transform="translate(0,0)" fill="rgb(173,63,216)" d="M 700.143 1201.14 C 704.714 1181.11 708.086 1165.04 717.303 1146.42 C 732.831 1115.04 775.801 1055.42 816.418 1075.82 L 818.486 1077.38 C 820.706 1079.07 822.149 1079.51 822.745 1081.75 C 783.874 1108.03 752.192 1137.72 735.688 1183.14 C 729.207 1200.97 725.6 1219.65 717.916 1236.98 C 703.569 1271.92 673.702 1245.66 652.801 1231.81 C 644.276 1225.05 636.526 1216.51 628.783 1208.75 C 625.249 1204.09 621.486 1198.9 617.649 1194.54 C 612.856 1186.14 607.486 1178.19 610.29 1167.95 C 613.14 1157.54 622.119 1157.74 630.569 1161.35 C 651.287 1170.18 664.966 1192.03 682.125 1206.04 L 695.438 1214.9 C 697.645 1209.84 698.61 1206.48 700.143 1201.14 z"/>
<path transform="translate(0,0)" fill="rgb(173,63,216)" d="M 1079.43 1134.58 L 1087.36 1133.83 C 1098.42 1138.74 1096.5 1144.79 1098.83 1155.22 C 1100.96 1160.72 1105.68 1172.57 1110.1 1176.43 C 1120.83 1191.22 1139.02 1198.91 1157.01 1198.81 C 1167.37 1198.99 1172.94 1198.23 1182.9 1195.47 C 1189.55 1194.3 1191.89 1193.41 1198.11 1190.79 C 1227.32 1178.05 1245.09 1171.84 1255.48 1209.04 C 1256.67 1214.96 1257.96 1220.87 1259.34 1226.75 C 1261.92 1241.3 1268.6 1270.57 1247.38 1274.25 C 1240.53 1275.43 1237.45 1272.41 1233.01 1267.94 C 1225.86 1258.47 1220.95 1247.38 1217.7 1236.02 C 1216.76 1232.54 1215.95 1228.49 1215.16 1224.92 L 1212.99 1214.01 L 1205.65 1218.49 C 1187.71 1227.23 1173.35 1234.1 1152.73 1234.16 C 1125.31 1234.24 1107.18 1228.77 1087.59 1209.59 C 1072.69 1193.44 1057.98 1157.05 1074.14 1137.68 L 1079.43 1134.58 z"/>
<path transform="translate(0,0)" fill="rgb(124,65,158)" fill-opacity="0.188235" d="M 547.647 893.497 C 547.887 891.762 548.014 890.635 549.27 889.522 C 549.927 888.94 552.723 885.009 552.688 884.812 C 549.695 868.257 544.084 850.587 543.142 833.609 C 542.319 818.804 547.444 798.335 552.046 784.427 C 554.04 778.401 562.032 770.144 562.437 761.901 C 563.26 745.145 555.192 720.03 552.83 705.738 C 550.149 689.51 561.784 645.161 570.686 630.884 C 574.592 624.62 577.97 619.251 582.888 613.586 C 590.308 605.038 600.399 597.991 607.788 589.748 C 611.543 585.559 624.231 565.998 628.478 564.759 L 631.096 567.173 C 628.282 573.958 623.761 588.003 620.579 593.034 L 619.82 593.04 L 619.938 591.334 C 611.75 596.174 605.048 602.748 598.353 609.391 C 589.617 618.058 581.263 621.412 582.351 635.172 C 565.161 663.077 561.046 688.946 567.454 721.12 C 570.22 735.011 577.055 746.353 580.226 757.802 C 560.815 789.75 546.025 803.366 553.894 846.555 C 547.062 868.881 562.896 885.039 573.842 902.811 C 577.168 908.211 580.681 916.619 584.344 922.12 C 591.646 928.647 616.212 954.626 623.166 958.679 C 650.892 974.838 650.499 962.882 669.806 991.636 C 695.878 1017.69 713.321 1039.38 754.599 1039.16 C 767.76 1039.1 781.628 1031.31 792.664 1033.95 C 795.27 1034.57 822.079 1064.63 823.321 1067.73 C 822.654 1069.41 820.852 1076.42 820.52 1076.71 L 818.486 1077.38 L 816.418 1075.82 L 817.259 1073.69 C 784.37 1034.34 808.281 1034.37 750.941 1042.6 C 740.895 1041.29 732.207 1040.9 722.241 1038.19 C 689.121 1029.16 669.621 1004.71 652.942 976.695 C 623.324 966.694 618.832 966.327 596.027 942.571 C 589.167 935.425 583.262 930.774 576.519 921.93 C 572.243 927.677 568.761 932.574 563.721 937.74 C 538.597 944.593 505.212 931.503 486.034 914.982 C 469.597 900.823 451.054 881.106 443.018 860.781 C 436.411 844.073 435.651 824.243 429.642 807.378 C 427.894 802.495 408.737 800.754 411.011 788.639 L 410.073 787.36 C 409.048 780.081 407.579 776.737 414.677 773.024 C 419.195 777.939 421.785 780.713 426.884 784.938 C 422.785 787.203 423.428 786.045 421.867 789.567 C 421.788 796.146 436.196 808.117 440.986 808.762 C 442.329 810.7 442.362 811.404 442.907 813.641 C 443.751 824.887 445.629 833.272 448.825 844.111 C 444.052 847.827 441.511 850.704 446.722 855.443 L 447.246 852.51 L 451.78 851.254 C 458.515 864.754 468.562 879.664 480.277 889.263 C 477.681 893.049 478.048 891.517 477.855 895.461 C 481.901 905.436 506.911 922.672 517.179 926.567 C 528.795 930.974 544.617 939.094 557.011 933.773 C 562.428 931.447 562.198 928.63 563.766 923.907 C 559.007 909.911 556.211 905.18 547.647 893.497 z"/>
<path transform="translate(0,0)" fill="rgb(238,200,92)" d="M 650.329 297.326 C 659.848 300.541 663.991 342.515 678.926 355.037 C 696.871 370.082 725.838 358.667 738.534 368.491 C 736.916 378.375 702.158 389.664 693.304 401.19 C 680.732 417.556 688.095 451.437 678.788 464.355 C 672.887 455.966 668.912 436.377 658.152 422.259 C 634.474 391.196 604.834 404.156 589.151 394.175 L 589.248 392.372 C 594.526 384.565 622.644 384.405 634.243 373.968 C 652.297 357.724 648.831 321.161 650.329 297.326 z"/>
<path transform="translate(0,0)" fill="rgb(238,200,92)" d="M 1544.57 367.516 C 1549.92 371.691 1550.56 401.288 1564.6 415.179 C 1579.03 429.443 1609.87 430.205 1616.49 438.527 C 1616.14 443.638 1609.39 445.091 1605.08 446.352 C 1586.59 451.765 1573.85 452.787 1562.54 470.385 C 1553.5 484.433 1553.8 503.173 1546.14 516.485 C 1541.5 508.889 1540.2 485.381 1534.02 473.855 C 1526.52 457.955 1509.74 452.651 1493.62 449.95 C 1487.88 448.989 1474.71 448.585 1472.29 442.719 C 1475.65 437.871 1503.37 430.968 1512.03 426.829 C 1535.93 415.399 1535.77 389.586 1544.57 367.516 z"/>
<path transform="translate(0,0)" fill="rgb(68,34,120)" fill-opacity="0.247059" d="M 820.52 1076.71 C 825.118 1077.95 825.456 1078.85 829.468 1077.63 C 832.834 1073.86 831.738 1073.99 836.006 1072.8 C 848.995 1076.13 860.967 1087.8 875.306 1090.36 C 903.434 1095.38 919.645 1097.69 948.47 1088.51 C 964.29 1092.55 987.023 1109.17 1001.09 1117.78 C 1007.21 1121.52 1019.68 1125.4 1026.7 1127.52 C 1038.89 1131.21 1048.98 1132.26 1061.57 1130.62 C 1063.66 1130.35 1072.44 1129.65 1074 1129.91 C 1075.85 1130.22 1077.49 1131.29 1078.52 1132.85 C 1078.9 1133.43 1079.02 1133.74 1079.43 1134.58 L 1074.14 1137.68 C 1072.32 1134.93 1073.2 1135.83 1069.85 1134.42 C 1017.59 1142.15 994.039 1120.23 953.061 1094.53 C 947.507 1094.72 942.443 1095.41 936.954 1096.24 C 912.312 1099.96 886.709 1099.95 862.625 1092.45 C 857.264 1089.95 839.699 1083.12 834.422 1082.31 C 832.791 1083.08 832.729 1083.51 831.983 1085.2 C 825.146 1100.71 808.108 1112.1 796.837 1124.69 C 795.733 1125.92 785.709 1136.54 784.921 1137.18 C 781.641 1139.28 778.638 1141.37 776.033 1144.3 C 770.067 1151 743.457 1189.06 741.758 1196.39 C 740.791 1200.57 740.29 1204.89 739.14 1209.02 C 738.11 1212.72 735.752 1216.17 735.503 1220.01 L 733.204 1218.61 C 730.035 1229.98 734.849 1241.78 724.907 1248.85 C 723.007 1248.31 723.015 1248.46 721.031 1248.8 C 715.639 1253 719.681 1260.28 711.073 1261 C 707.76 1261.28 704.861 1264.86 702.585 1267.37 C 690.778 1268.88 681.481 1265.72 672.158 1258.32 C 663.677 1251.59 654.399 1245.3 648.124 1236.32 C 647.637 1232.95 647.25 1234.41 649.137 1231.76 L 652.801 1231.81 C 673.702 1245.66 703.569 1271.92 717.916 1236.98 C 725.6 1219.65 729.207 1200.97 735.688 1183.14 C 752.192 1137.72 783.874 1108.03 822.745 1081.75 C 822.149 1079.51 820.706 1079.07 818.486 1077.38 L 820.52 1076.71 z"/>
<path transform="translate(0,0)" fill="rgb(238,200,92)" d="M 718.195 125.749 C 724.135 131.366 723.042 158.688 735.029 168.561 C 748.791 179.896 760.107 177.813 774.6 185.429 C 775.358 185.826 775.128 186.417 775.286 187.707 C 769.962 193.321 755.152 195.1 747.092 198.461 C 722.796 208.591 726.667 232.001 718.728 250.611 C 714.076 248.126 709.772 221.196 702.931 211.189 C 694.172 198.377 661.632 194.3 661.289 186.587 C 666.621 180.579 681.168 180.219 689.415 176.135 C 713.074 164.419 711.147 145.288 718.195 125.749 z"/>
<path transform="translate(0,0)" fill="rgb(238,200,92)" d="M 1597.37 795.639 C 1600.94 799.531 1601 816.843 1605.37 824.342 C 1617.09 844.421 1633.45 845.711 1653.71 850.073 C 1655.89 850.543 1657.63 851.683 1658.63 853.716 C 1655.6 859.273 1633.44 861.114 1623.58 866.97 C 1605.5 877.705 1602.92 891.275 1597.06 910.045 C 1596.7 911.29 1595.87 912.513 1595.21 913.677 L 1593.52 913.601 C 1589.56 907.648 1588.81 887.142 1583.39 877.861 C 1575.78 864.823 1568.68 863.181 1554.74 858.6 C 1549.81 856.981 1543.74 855.068 1541.52 850.478 C 1545.07 845.225 1558.62 843.787 1565.75 841.304 C 1590.81 832.575 1588.58 813.205 1597.37 795.639 z"/>
<path transform="translate(0,0)" fill="rgb(49,207,232)" d="M 1459.89 211.257 C 1465.29 215.436 1464.47 251.633 1473.55 263.6 C 1483.63 276.892 1499.42 273.763 1504.35 281.347 C 1493.47 289.539 1485.09 291.911 1475.79 302.707 C 1465.37 314.81 1467.04 354.21 1459.89 361.432 C 1451.93 353.426 1455.22 321.951 1448.44 308.441 C 1439.94 291.518 1428.53 288.135 1411.81 281.846 C 1417.64 279.864 1423.24 278.057 1428.87 275.535 C 1457.09 262.891 1451.6 234.412 1459.58 212.102 L 1459.89 211.257 z"/>
<path transform="translate(0,0)" fill="rgb(49,207,232)" d="M 513.2 210.761 C 518.058 215.139 518.345 245.831 526.974 257.862 C 538.207 273.525 559.126 274.424 562.699 278.314 C 560.479 282.461 542.627 286.406 536.297 290.208 C 517.733 301.357 519.529 325.994 514.384 345.605 C 513.261 346.349 512.852 346.353 511.546 346.8 C 506.173 340.759 507.753 313.72 499.927 300.194 C 489.229 281.705 471.789 283.55 468.716 278.156 C 470.055 273.852 489.852 270.643 497.564 259.89 C 509.356 243.445 506.718 225.679 513.2 210.761 z"/>
<path transform="translate(0,0)" fill="rgb(124,65,158)" fill-opacity="0.207843" d="M 1146.63 493.765 C 1154.24 476.69 1204.64 487.782 1218.11 494.626 C 1229.98 500.653 1238.07 508.926 1248.16 514.135 L 1248.67 514.152 C 1277.3 546.828 1280.43 538.009 1318.35 554.237 C 1343.05 562.516 1366.06 593.652 1378.03 616.066 C 1384.73 628.623 1390.41 651.711 1398.43 664.354 C 1400.06 666.915 1408.49 671.282 1412.48 674.276 C 1436.42 692.224 1456.88 717.828 1458.36 749.074 C 1457.64 746.547 1456.86 744.037 1456.03 741.548 C 1454.33 736.626 1452.38 732.176 1447.52 729.836 L 1439.82 714.598 C 1434.28 705.526 1430.17 699.361 1422.38 691.886 C 1417.05 686.688 1412.55 683.019 1406.8 678.344 C 1400.78 673.39 1397.42 671.512 1390.04 669.224 C 1389.11 668.904 1380.55 665.957 1380.55 666.023 C 1379.18 625.405 1352.9 581.666 1316.29 563.154 C 1300.05 554.945 1286.76 551.45 1268.39 548.835 C 1272.47 547.524 1271.77 548.378 1274.28 545.587 C 1272.11 539.667 1269.06 542.407 1264.69 538.198 C 1263.75 536.678 1258.49 531.629 1256.83 529.953 C 1252.87 525.963 1245.56 514.776 1239.64 516.347 L 1239.48 519.999 C 1218.66 503.368 1207.47 497.181 1180.28 494.682 L 1180.47 493.54 C 1182.14 492.793 1182.94 492.359 1184.51 491.425 C 1179.46 490.317 1161.23 485.374 1159.62 492.366 C 1161.58 492.841 1163.09 493.002 1165.06 493.248 L 1164.3 494.719 C 1157.95 495.313 1154.46 495.452 1148.09 495.231 L 1146.63 493.765 z"/>
<path transform="translate(0,0)" fill="rgb(114,56,154)" fill-opacity="0.113725" d="M 862.625 1092.45 C 886.709 1099.95 912.312 1099.96 936.954 1096.24 C 942.443 1095.41 947.507 1094.72 953.061 1094.53 C 994.039 1120.23 1017.59 1142.15 1069.85 1134.42 C 1073.2 1135.83 1072.32 1134.93 1074.14 1137.68 C 1057.98 1157.05 1072.69 1193.44 1087.59 1209.59 L 1084.55 1211.55 C 1083.76 1219 1091.89 1223.79 1096.7 1228.7 C 1110.15 1242.45 1125.09 1249.82 1144.3 1250.06 C 1159.7 1250.93 1169.21 1250.54 1184.86 1246.15 C 1193.44 1243.74 1201.08 1237.72 1208.53 1237.61 C 1212.48 1237.56 1214.61 1238.36 1217.7 1236.02 C 1220.95 1247.38 1225.86 1258.47 1233.01 1267.94 L 1230.21 1268.96 C 1228.79 1271.12 1228.26 1271.54 1229 1274.24 C 1232.45 1286.81 1240.37 1292.22 1252.92 1287.91 C 1272.49 1281.21 1274.75 1256.23 1268.24 1239.54 C 1266.7 1235.61 1263.69 1231.29 1262.81 1227.26 L 1259.34 1226.75 C 1257.96 1220.87 1256.67 1214.96 1255.48 1209.04 C 1255.8 1206.84 1255.49 1202.34 1255.4 1200 L 1257.61 1197.95 C 1262.63 1198.61 1262.87 1206.25 1264.7 1210.93 C 1274.17 1235.22 1284.7 1301.47 1238.78 1290.3 C 1222.67 1285.22 1222.6 1267.01 1213.66 1254.47 C 1208.51 1243.48 1209.52 1244.76 1197.07 1247.59 C 1142.38 1260.05 1098.53 1260.81 1069.79 1205 C 1053.22 1172.83 1069.31 1172.5 1057.27 1142.93 C 1054.83 1136.92 1033.14 1136.4 1027.21 1135.17 C 998.188 1134.57 973.21 1107.77 951.453 1098.8 C 939.075 1093.69 875.326 1108.58 862.625 1092.45 z"/>
<path transform="translate(0,0)" fill="url(#Gradient7)" d="M 698.919 493.856 L 698.079 492.742 C 694.023 492.269 686.895 499.695 680.597 499.968 L 679.058 498.373 C 680.859 495.383 681.114 494.984 683.931 492.946 C 685.526 493.682 686.386 494.201 687.88 495.068 C 695.929 487.81 723.057 474.774 733.691 469.094 C 734.553 468.633 752.363 467.043 755.908 466.237 L 758.941 461.15 C 760.461 461.722 759.757 461.416 760.845 463.572 L 763.381 463.919 C 766.339 462.031 767.145 461.372 770.634 460.87 C 786.296 458.616 799.731 451.084 813.971 446.427 C 823.294 448.81 822.204 441.955 830.298 437.837 C 831.134 438.12 836.783 439.156 837.315 438.801 C 849.743 430.506 853.485 426.594 868.98 428.153 C 873.109 428.569 882.784 428.854 886.673 428.448 C 886.883 426.796 886.819 426.546 887.488 425.042 L 889.242 427.731 C 894.299 428.735 893.747 424.986 901.099 425.559 C 912.817 426.471 924.485 427.463 936.199 428.512 L 936.15 431.328 C 939.436 433.771 950.414 431.852 954.183 433.124 C 956.4 433.872 958.426 438.544 963.422 438.815 C 969.095 435.172 968.254 427.678 974.414 427.074 L 975.021 428.019 L 972.038 430.572 C 974.557 432.861 975.025 432.933 978.401 433.533 L 979.608 432.205 C 980.665 437.957 979.308 447.689 978.807 453.905 C 973.836 456.313 970.653 457.952 965.987 460.87 C 961.542 456.989 944.036 450.895 938.004 449.144 C 939.023 446.546 939.044 446.273 940.862 444.226 L 944.901 445.199 L 945.626 444.411 C 939.605 441.406 930.509 440.345 924.436 435.715 C 923.295 434.845 914.6 436.488 911.84 436.222 C 906.502 435.707 900.643 434.637 895.251 434.318 C 875.7 434.116 853.045 435.895 835.719 445.395 C 825.649 448.406 807.011 458.449 797.158 463.7 L 796.406 464.022 C 780.204 470.4 777.519 467.319 760.561 469.298 C 745.201 471.091 733.159 477.331 720.022 484.578 C 711.178 486.581 709.144 491.488 698.919 493.856 z"/>
<path transform="translate(0,0)" fill="rgb(209,135,243)" d="M 475.322 648.468 C 475.917 639.937 481.924 602.429 501.249 608.384 C 505.104 609.572 509.139 619.9 510.175 624.141 C 510.471 636.215 506.252 652.034 505.178 665.122 C 504.409 674.494 506.316 693.73 504.515 700.112 L 504.309 700.858 C 504.157 701.317 504.004 701.776 503.852 702.235 C 500.537 702.532 486.14 698.304 478.639 697.632 C 477.952 694.549 477.535 691.873 477.065 688.774 L 475.328 673.288 C 474.888 666.462 474.96 657.4 474.816 650.403 L 475.322 648.468 z"/>
<path transform="translate(0,0)" fill="rgb(68,34,120)" fill-opacity="0.305882" d="M 1087.59 1209.59 C 1107.18 1228.77 1125.31 1234.24 1152.73 1234.16 C 1173.35 1234.1 1187.71 1227.23 1205.65 1218.49 L 1205.4 1219.2 C 1204.38 1221.98 1204.37 1222.15 1202.44 1224.3 C 1205.84 1230.63 1211.23 1231.38 1215.16 1224.92 C 1215.95 1228.49 1216.76 1232.54 1217.7 1236.02 C 1214.61 1238.36 1212.48 1237.56 1208.53 1237.61 C 1201.08 1237.72 1193.44 1243.74 1184.86 1246.15 C 1169.21 1250.54 1159.7 1250.93 1144.3 1250.06 C 1125.09 1249.82 1110.15 1242.45 1096.7 1228.7 C 1091.89 1223.79 1083.76 1219 1084.55 1211.55 L 1087.59 1209.59 z"/>
<path transform="translate(0,0)" fill="rgb(114,56,154)" fill-opacity="0.145098" d="M 1596.35 1104.8 L 1599.78 1101.35 C 1601.31 1101.44 1602.55 1101.15 1603.43 1102.72 C 1612.16 1118.38 1594.59 1125.68 1589.54 1137.47 C 1584.52 1149.2 1590.41 1166.6 1576.25 1172.36 C 1570.81 1174.51 1556.86 1174.49 1554.9 1175.72 C 1544.27 1182.42 1545.28 1197.63 1528.26 1198.24 C 1524.45 1198.98 1521.12 1197.14 1518.02 1196.5 C 1505.09 1193.86 1500.41 1151.8 1486.36 1157.82 C 1474.07 1163.09 1470.01 1182.67 1449.7 1166.62 C 1447.83 1162.79 1445.44 1159.18 1445.86 1155.18 C 1446.96 1153.29 1447.8 1151.89 1449.06 1150.1 C 1452.63 1152.95 1453.38 1153.61 1457.65 1155.46 L 1460.36 1156.27 C 1458.85 1158.66 1457.81 1160.69 1457.49 1163.46 C 1466.59 1175.22 1489.72 1147.68 1495.79 1141.35 C 1496.32 1140.79 1496.84 1135.81 1496.94 1134.77 C 1500.59 1145.1 1509.45 1168.47 1516.01 1176.82 L 1512.74 1177.58 C 1512.82 1181.04 1518.44 1187.7 1521.26 1189.48 C 1534.37 1197.76 1542.29 1182.23 1547.84 1173.16 C 1559.3 1164.36 1562.61 1177.45 1573.06 1165.62 L 1573.91 1164.65 L 1577.87 1165.6 L 1579.27 1164.64 C 1584.23 1156.01 1582.17 1140.43 1581.43 1130.67 C 1587.33 1123.7 1595.19 1122.04 1594.11 1111.59 C 1594.33 1110.48 1595.9 1106.14 1596.35 1104.8 z"/>
<path transform="translate(0,0)" fill="rgb(144,91,183)" fill-opacity="0.145098" d="M 510.175 624.141 L 512.063 619.117 C 513.883 620.091 515.872 624.056 516.2 625.819 C 519.012 640.962 513.139 660.213 513.173 675.238 C 513.195 684.849 512.291 699.772 513.257 708.707 C 514.621 721.319 519.311 730.745 517.966 744.909 C 516.956 755.539 517.307 762.469 512.275 772.519 C 507.725 781.608 486.662 801.309 488.929 809.716 C 490.77 816.543 495.009 834.968 498.33 841.449 C 500.87 846.406 508.507 856.455 510.793 861.934 L 508.568 864.082 C 491.689 848.259 480.698 824.355 480.778 801.128 L 481.329 800.711 C 482.333 802.671 481.843 802.213 483.378 803.622 C 487.123 797.775 497.003 789.798 502.201 781.357 C 512.337 764.898 517.65 747.911 513.967 728.716 C 511.942 735.315 513.767 745.893 508.514 749.644 C 511.977 734.915 511.739 723.41 501.075 711.801 C 502.124 710.474 502.833 704.871 503.852 702.235 C 504.004 701.776 504.157 701.317 504.309 700.858 L 504.515 700.112 C 506.316 693.73 504.409 674.494 505.178 665.122 C 506.252 652.034 510.471 636.215 510.175 624.141 z"/>
<path transform="translate(0,0)" fill="rgb(130,70,168)" fill-opacity="0.317647" d="M 553.894 846.555 C 567.556 888.548 605.291 949.205 652.654 954.361 C 656.353 954.764 661.434 954.233 662.854 956.997 L 662.735 959.492 C 660.884 966.102 663.758 964.108 661.762 966.776 C 657.582 964.362 654.125 960.941 649.917 960.389 C 647.307 961.758 648.019 960.757 647.261 963.121 C 660.346 977.101 664.892 964.176 669.806 991.636 C 650.499 962.882 650.892 974.838 623.166 958.679 C 616.212 954.626 591.646 928.647 584.344 922.12 C 580.681 916.619 577.168 908.211 573.842 902.811 C 562.896 885.039 547.062 868.881 553.894 846.555 z"/>
<path transform="translate(0,0)" fill="rgb(49,207,232)" d="M 1618.9 568.617 L 1620.52 569.45 C 1622.89 580.835 1547.48 674.638 1533.34 680.689 L 1531.24 679.362 L 1531.05 676.989 C 1539.41 657.848 1601.77 579.854 1618.9 568.617 z"/>
<path transform="translate(0,0)" fill="rgb(114,56,154)" fill-opacity="0.34902" d="M 1459.1 841.81 C 1464.28 845.738 1467.52 862.279 1469.54 869.286 C 1467.21 888.027 1471.47 913.658 1462.31 933.842 C 1458.33 942.634 1452.56 950.842 1448.33 959.68 C 1445.11 966.389 1443.66 974.94 1437.54 980.271 C 1436.15 981.483 1432.7 981.571 1430.76 981.714 L 1425.6 980.136 C 1428.37 979.753 1428.37 979.799 1430.9 978.66 C 1432.92 975.96 1433.93 974.847 1436.64 972.852 C 1439.52 971.684 1441.02 969.815 1442.12 967.01 C 1441.14 963.009 1441.9 964.514 1438.43 961.315 C 1435.23 960.818 1434.38 961.054 1431.11 961.446 C 1458.45 928.498 1468.66 883.664 1449.31 843.941 C 1450.9 842.641 1456.71 842.159 1459.1 841.81 z"/>
<path transform="translate(0,0)" fill="rgb(49,207,232)" d="M 397.675 441.117 C 418.07 445.389 473.118 514.111 480.191 534.602 C 475.543 534.431 474.095 533.431 470.603 530.302 C 459.561 520.407 398.226 450.59 397.675 441.117 z"/>
<path transform="translate(0,0)" fill="url(#Gradient6)" d="M 393.642 732.231 C 390.226 714.842 390.968 695.694 412.861 694.238 L 412.954 695.019 C 414.558 709.686 411.268 716.389 418.481 731.206 L 418.727 731.813 C 422.3 740.454 426.589 741.921 422.111 751.627 C 411.284 754.933 409.866 754.292 401.083 747.402 C 398.952 744.272 397.44 741.333 395.655 738.016 L 393.642 732.231 z"/>
<path transform="translate(0,0)" fill="rgb(114,56,154)" fill-opacity="0.282353" d="M 480.277 889.263 C 503.769 909.306 532.985 921.429 563.766 923.907 C 562.198 928.63 562.428 931.447 557.011 933.773 C 544.617 939.094 528.795 930.974 517.179 926.567 C 506.911 922.672 481.901 905.436 477.855 895.461 C 478.048 891.517 477.681 893.049 480.277 889.263 z"/>
<path transform="translate(0,0)" fill="rgb(114,56,154)" fill-opacity="0.129412" d="M 724.907 1248.85 C 734.849 1241.78 730.035 1229.98 733.204 1218.61 L 735.503 1220.01 C 735.752 1216.17 738.11 1212.72 739.14 1209.02 C 740.29 1204.89 740.791 1200.57 741.758 1196.39 C 743.457 1189.06 770.067 1151 776.033 1144.3 C 778.638 1141.37 781.641 1139.28 784.921 1137.18 C 782.348 1140.39 776.684 1145.86 775.217 1148.03 C 765.341 1162.7 755.865 1178.06 747.743 1193.9 C 735.518 1217.74 737.011 1266.4 702.53 1271.72 C 677.002 1275.65 669.605 1263.83 650.693 1249.28 C 636.084 1238.04 616.969 1218.55 611.184 1199.86 C 610.766 1198.51 611.625 1196.5 612.215 1195.23 L 614.127 1193.6 L 617.649 1194.54 C 621.486 1198.9 625.249 1204.09 628.783 1208.75 C 625.611 1209.44 627.153 1209.54 624.011 1208.27 C 617.344 1219.54 670.847 1263.51 679.259 1266.81 L 679.979 1267.1 C 687.652 1270.1 695.466 1269.79 703.544 1269.56 C 721.057 1259.12 715.41 1263.68 724.907 1248.85 z"/>
<path transform="translate(0,0)" fill="rgb(114,56,154)" fill-opacity="0.0823529" d="M 1087.36 1133.83 C 1093.42 1130.4 1100.4 1123.1 1109.49 1122.94 C 1122.92 1122.69 1141.24 1127.32 1154.94 1127.81 C 1162.55 1128.08 1172.93 1125.47 1181 1126.23 C 1177.63 1128.75 1174.06 1128.75 1169.96 1129.27 C 1160.91 1130.45 1151.76 1130.79 1142.65 1130.3 C 1117.51 1129.2 1088.63 1116.74 1111.49 1157.07 C 1113.51 1160.64 1113.74 1167.92 1116.72 1171.61 C 1126.31 1183.48 1143.91 1193.19 1159.29 1190.32 C 1163.28 1192.18 1162.87 1191.26 1164.84 1194.41 C 1163.34 1196.69 1162.97 1196.57 1160.51 1197.49 C 1159.35 1197.95 1158.18 1198.38 1157.01 1198.81 C 1139.02 1198.91 1120.83 1191.22 1110.1 1176.43 C 1114.33 1176.54 1115.82 1179.98 1120.36 1182.36 C 1111.98 1172.55 1110.88 1159.76 1102.71 1151.96 L 1101.11 1152.08 L 1098.83 1155.22 C 1096.5 1144.79 1098.42 1138.74 1087.36 1133.83 z"/>
<path transform="translate(0,0)" fill="rgb(238,200,92)" d="M 1370 136.213 C 1375.32 147.754 1307.02 190.274 1294.35 192.705 L 1293.37 191.222 C 1293.11 178.608 1356.94 141.315 1370 136.213 z"/>
<path transform="translate(0,0)" fill="rgb(68,34,120)" fill-opacity="0.266667" d="M 1538.41 1132.92 C 1547 1143.23 1554.05 1156.08 1566.14 1160.16 L 1564.59 1160.68 C 1567.49 1161.54 1570.27 1161.74 1570.65 1165.47 C 1560.95 1169.62 1554.66 1162.67 1548.46 1170.02 L 1547.84 1173.16 C 1542.29 1182.23 1534.37 1197.76 1521.26 1189.48 C 1518.44 1187.7 1512.82 1181.04 1512.74 1177.58 L 1516.01 1176.82 C 1537.62 1193.14 1542.9 1165.57 1537.23 1148.31 C 1537.27 1146.96 1537.22 1145.2 1537.9 1144.09 C 1542.1 1137.3 1536.48 1141.78 1538.41 1132.92 z"/>
<path transform="translate(0,0)" fill="rgb(68,34,120)" fill-opacity="0.188235" d="M 1259.34 1226.75 L 1262.81 1227.26 C 1263.69 1231.29 1266.7 1235.61 1268.24 1239.54 C 1274.75 1256.23 1272.49 1281.21 1252.92 1287.91 C 1240.37 1292.22 1232.45 1286.81 1229 1274.24 C 1228.26 1271.54 1228.79 1271.12 1230.21 1268.96 L 1233.01 1267.94 C 1237.45 1272.41 1240.53 1275.43 1247.38 1274.25 C 1268.6 1270.57 1261.92 1241.3 1259.34 1226.75 z"/>
<path transform="translate(0,0)" fill="url(#Gradient5)" d="M 1441.4 735.057 C 1444.39 736.893 1445.55 737.652 1448.83 738.846 C 1460.86 756.331 1460.68 815.414 1451.98 834.056 C 1449.37 826.704 1449.65 825.564 1442.19 823.102 C 1454.11 790.936 1451.54 766.836 1441.4 735.057 z"/>
<path transform="translate(0,0)" fill="rgb(124,65,158)" fill-opacity="0.188235" d="M 835.719 445.395 C 847.987 445.392 859.768 440.16 871.582 438.096 C 879.198 436.765 897.92 437.653 905.36 440.037 L 905.067 441.373 L 900.676 443.861 C 873.286 443.734 854.091 445.694 828.749 457.474 C 823.246 460.032 813.146 465.934 808.912 467.669 C 806.521 467.043 803.335 467.14 800.801 467.087 L 799.997 465 L 797.158 463.7 C 807.011 458.449 825.649 448.406 835.719 445.395 z"/>
<path transform="translate(0,0)" fill="rgb(68,34,120)" fill-opacity="0.235294" d="M 1566.06 1109.95 C 1575.3 1112.7 1585.15 1116.9 1594.11 1111.59 C 1595.19 1122.04 1587.33 1123.7 1581.43 1130.67 C 1582.17 1140.43 1584.23 1156.01 1579.27 1164.64 L 1577.87 1165.6 L 1573.91 1164.65 L 1573.06 1165.62 C 1562.61 1177.45 1559.3 1164.36 1547.84 1173.16 L 1548.46 1170.02 C 1554.66 1162.67 1560.95 1169.62 1570.65 1165.47 C 1570.27 1161.74 1567.49 1161.54 1564.59 1160.68 L 1566.14 1160.16 C 1588.62 1151.42 1571.9 1125.48 1561.78 1114.23 L 1566.06 1109.95 z"/>
<path transform="translate(0,0)" fill="rgb(238,200,92)" d="M 897.848 80.4055 C 909.225 84.4029 941.786 126.266 944.603 139.724 C 931.294 140.96 897.379 95.5409 897.848 80.4055 z"/>
<path transform="translate(0,0)" fill="rgb(68,34,120)" fill-opacity="0.294118" d="M 1457.65 1155.46 C 1475.11 1154.26 1474.83 1140.71 1484.29 1127.91 C 1487.16 1124.04 1490.72 1121.05 1494.32 1117.88 C 1494.88 1123.24 1496.05 1129.39 1496.94 1134.77 C 1496.84 1135.81 1496.32 1140.79 1495.79 1141.35 C 1489.72 1147.68 1466.59 1175.22 1457.49 1163.46 C 1457.81 1160.69 1458.85 1158.66 1460.36 1156.27 L 1457.65 1155.46 z"/>
<path transform="translate(0,0)" fill="rgb(238,200,92)" d="M 1228.69 59.7085 L 1229.99 61.1101 C 1232.31 72.332 1200.07 115.301 1190.13 119.237 C 1188.94 117.038 1187.51 115.052 1188.57 112.364 C 1194.43 97.6067 1216.19 68.1606 1228.69 59.7085 z"/>
<path transform="translate(0,0)" fill="rgb(124,65,158)" fill-opacity="0.247059" d="M 508.514 749.644 C 513.767 745.893 511.942 735.315 513.967 728.716 C 517.65 747.911 512.337 764.898 502.201 781.357 C 497.003 789.798 487.123 797.775 483.378 803.622 C 481.843 802.213 482.333 802.671 481.329 800.711 L 480.778 801.128 C 479.952 797.306 481.212 787.217 481.646 782.884 C 496.138 768.127 498.21 771.786 508.514 749.644 z"/>
<path transform="translate(0,0)" fill="rgb(238,200,92)" d="M 823.797 198.813 C 836.249 200.054 875.343 210.844 886.072 219.65 C 888.024 221.252 887.625 224.05 887.57 226.269 C 871.594 225.744 840.959 215.111 826.465 206.71 C 822.721 204.54 822.831 202.41 823.797 198.813 z"/>
<path transform="translate(0,0)" fill="rgb(49,207,232)" d="M 799.446 320.661 C 809.156 323.984 850.65 361.648 850.556 371.853 C 834.811 369.174 808.944 341.919 800.238 328.611 C 798.017 325.217 798.399 324.131 799.446 320.661 z"/>
<path transform="translate(0,0)" fill="rgb(130,70,168)" fill-opacity="0.160784" d="M 720.022 484.578 C 733.159 477.331 745.201 471.091 760.561 469.298 C 777.519 467.319 780.204 470.4 796.406 464.022 C 788.143 472.281 776.113 468.296 770.757 472.642 L 770.903 473.799 L 769.946 473.503 L 771.358 472.419 L 772.241 473.968 C 775.52 474.09 780.775 474.392 783.944 473.735 C 788.366 472.819 796.742 465.172 799.997 465 L 800.801 467.087 C 803.335 467.14 806.521 467.043 808.912 467.669 C 804.185 470.877 797.516 475.109 793.397 478.811 C 769.404 470.862 742.706 481.978 720.732 491.49 L 721.723 489.257 L 721.577 488.254 C 722.918 487.438 722.492 487.946 723.073 486.941 C 722.167 486.783 721.761 486.662 720.831 486.832 L 720.022 484.578 z"/>
<path transform="translate(0,0)" fill="rgb(68,34,120)" fill-opacity="0.196078" d="M 628.783 1208.75 C 636.526 1216.51 644.276 1225.05 652.801 1231.81 L 649.137 1231.76 C 647.25 1234.41 647.637 1232.95 648.124 1236.32 C 654.399 1245.3 663.677 1251.59 672.158 1258.32 C 681.481 1265.72 690.778 1268.88 702.585 1267.37 C 704.861 1264.86 707.76 1261.28 711.073 1261 C 719.681 1260.28 715.639 1253 721.031 1248.8 C 723.015 1248.46 723.007 1248.31 724.907 1248.85 C 715.41 1263.68 721.057 1259.12 703.544 1269.56 C 695.466 1269.79 687.652 1270.1 679.979 1267.1 L 679.259 1266.81 C 670.847 1263.51 617.344 1219.54 624.011 1208.27 C 627.153 1209.54 625.611 1209.44 628.783 1208.75 z"/>
<path transform="translate(0,0)" fill="rgb(238,200,92)" d="M 1327.2 303.401 C 1336.73 302.477 1365.37 301.435 1371.33 309.034 C 1367.99 312.575 1355.43 312.676 1350.25 313.028 C 1340.9 313.509 1310.02 316.654 1303.94 310.394 L 1304.8 308.487 C 1310.9 303.668 1319.29 304.061 1327.2 303.401 z"/>
<path transform="translate(0,0)" fill="rgb(124,65,158)" fill-opacity="0.309804" d="M 1447.52 729.836 C 1452.38 732.176 1454.33 736.626 1456.03 741.548 C 1456.86 744.037 1457.64 746.547 1458.36 749.074 C 1466.47 779.914 1467.27 806.854 1455.5 837.162 L 1451.98 834.056 C 1460.68 815.414 1460.86 756.331 1448.83 738.846 C 1445.55 737.652 1444.39 736.893 1441.4 735.057 L 1439.73 731.335 L 1440.57 730.896 L 1444.15 733.703 L 1445.89 733.206 L 1447.52 729.836 z"/>
<path transform="translate(0,0)" fill="rgb(49,207,232)" d="M 1625.98 696.26 C 1627.53 696.026 1627.77 696.208 1629.37 696.394 L 1630.17 698.029 C 1626.05 712.141 1582.77 715.792 1570.18 716.894 C 1566.45 716.005 1567 716.701 1564.59 714.402 L 1565.1 712.601 C 1572.04 707.506 1614.7 698.895 1625.98 696.26 z"/>
<path transform="translate(0,0)" fill="rgb(114,56,154)" fill-opacity="0.27451" d="M 1469.54 869.286 C 1476.54 901.967 1469.78 946.644 1447.01 972.092 C 1446.05 976.868 1446.39 978.17 1447.54 982.77 L 1446.87 984.455 C 1444.43 985.066 1443.43 985.23 1440.93 985.495 C 1438.74 984.901 1433.13 982.614 1430.76 981.714 C 1432.7 981.571 1436.15 981.483 1437.54 980.271 C 1443.66 974.94 1445.11 966.389 1448.33 959.68 C 1452.56 950.842 1458.33 942.634 1462.31 933.842 C 1471.47 913.658 1467.21 888.027 1469.54 869.286 z"/>
<path transform="translate(0,0)" fill="rgb(114,56,154)" fill-opacity="0.164706" d="M 835.719 445.395 C 853.045 435.895 875.7 434.116 895.251 434.318 C 900.643 434.637 906.502 435.707 911.84 436.222 C 914.6 436.488 923.295 434.845 924.436 435.715 C 930.509 440.345 939.605 441.406 945.626 444.411 L 944.901 445.199 L 940.862 444.226 C 939.044 446.273 939.023 446.546 938.004 449.144 C 925.984 445.867 913.098 445.086 900.676 443.861 L 905.067 441.373 L 905.36 440.037 C 897.92 437.653 879.198 436.765 871.582 438.096 C 859.768 440.16 847.987 445.392 835.719 445.395 z"/>
<path transform="translate(0,0)" fill="rgb(238,200,92)" d="M 1270.82 411.726 C 1281.08 412.744 1322.94 428.227 1326.8 437.498 L 1325.77 439.552 C 1313.61 437.537 1278.08 427.54 1269.81 415.72 C 1269.03 414.611 1270.21 413.041 1270.82 411.726 z"/>
<path transform="translate(0,0)" fill="rgb(49,207,232)" d="M 521.898 451.399 C 530.302 455.437 528.273 494.451 527.644 503.632 C 527.377 507.529 527.078 509.435 523.735 511.326 C 516.55 497.953 511.915 463.248 521.898 451.399 z"/>
<path transform="translate(0,0)" fill="rgb(114,56,154)" fill-opacity="0.164706" d="M 1430.93 1036.02 C 1428.24 1032.81 1427.82 1033.42 1427.73 1029.83 L 1429.18 1029.09 C 1439.91 1033.48 1457.18 1048.25 1467.16 1055.3 C 1469.9 1057.24 1470.22 1061.8 1473.21 1063.5 C 1475.05 1064.55 1476.32 1063.51 1478.62 1062.56 C 1482.18 1069.89 1486.15 1077.71 1489.46 1085.08 L 1482.94 1090.38 C 1478.28 1085.02 1479.74 1085.34 1477.53 1080.19 C 1471.4 1065.88 1444.77 1041.73 1430.93 1036.02 z"/>
<path transform="translate(0,0)" fill="rgb(49,207,232)" d="M 369.032 555.108 C 378.027 554.282 423.353 561.241 425.988 569.44 L 424.739 571.576 C 412.389 572.627 379.554 567.053 368.952 559.337 C 367.974 558.625 368.816 556.273 369.032 555.108 z"/>
<path transform="translate(0,0)" fill="rgb(130,70,168)" fill-opacity="0.121569" d="M 640.234 552.266 C 639.494 551.869 636.96 550.579 636.79 550.073 C 632.443 537.147 671.403 512.361 676.26 509.296 L 676.815 511.052 C 676.374 514.403 676.3 516.376 676.267 519.762 C 660.453 529.959 651.557 536.978 640.234 552.266 z"/>
<path transform="translate(0,0)" fill="rgb(49,207,232)" d="M 1424.23 504.909 L 1426.33 506.28 C 1426.74 517.08 1390.41 530.514 1380.89 531.791 C 1378.73 530.532 1379.51 531.396 1378.5 529.109 C 1383.39 520.418 1414.84 508.532 1424.23 504.909 z"/>
<path transform="translate(0,0)" fill="rgb(49,207,232)" d="M 1525.12 601.457 L 1527.33 602.54 C 1528.02 613.121 1511.01 637.523 1503.06 644.488 L 1500.9 643.079 C 1495.55 631.328 1516.56 608.002 1525.12 601.457 z"/>
<path transform="translate(0,0)" fill="rgb(124,65,158)" fill-opacity="0.309804" d="M 412.861 694.238 C 412.495 694.792 424.042 685.568 425.045 685.083 L 428.185 686.467 C 423.964 696.843 422.892 702.161 426.479 713.045 C 424.359 717.586 419.719 716.498 418.745 720.752 C 417.815 724.814 420.076 726.251 418.481 731.206 C 411.268 716.389 414.558 709.686 412.954 695.019 L 412.861 694.238 z"/>
<path transform="translate(0,0)" fill="rgb(49,207,232)" d="M 1045.59 65.4403 C 1054.14 70.3604 1054.65 102.631 1047.9 109.315 C 1039.06 102.638 1040.07 75.2032 1045.59 65.4403 z"/>
<path transform="translate(0,0)" fill="rgb(124,65,158)" fill-opacity="0.32549" d="M 426.884 784.938 C 433.484 788.546 436.852 790.123 444.171 792.008 C 443.615 798.814 442.723 806.92 442.907 813.641 C 442.362 811.404 442.329 810.7 440.986 808.762 C 436.196 808.117 421.788 796.146 421.867 789.567 C 423.428 786.045 422.785 787.203 426.884 784.938 z"/>
<path transform="translate(0,0)" fill="rgb(144,91,183)" fill-opacity="0.184314" d="M 458.321 679.86 C 458.56 678.014 458.608 678.977 456.985 676.841 C 456.795 673.077 461.854 672.696 463.306 669.713 C 466.527 663.094 464.599 648.966 470.99 644.533 C 474.173 645.636 473.089 645.08 475.322 648.468 L 474.816 650.403 C 472.49 658.996 475.086 663.809 472.855 671.244 C 464.639 674.77 463.749 679.236 464.99 688.109 L 464.305 688.979 C 462.807 685.778 460.41 682.759 458.321 679.86 z"/>
<path transform="translate(0,0)" fill="rgb(124,65,158)" fill-opacity="0.0745098" d="M 1509.25 1038.97 C 1511.69 1037.57 1513.31 1037.64 1516.13 1037.77 C 1522.11 1041.58 1537.78 1065.1 1535.34 1070.92 L 1530.95 1073.51 C 1525.99 1068.05 1514.45 1046.61 1509.25 1038.97 z"/>
<path transform="translate(0,0)" fill="url(#Gradient4)" d="M 1447.01 972.092 C 1449.47 974.616 1449.7 975.643 1451 978.963 C 1456.84 983.65 1477.05 993.339 1478.47 999.815 C 1476.38 1002.11 1475.23 1001.68 1472.05 1001.43 C 1471.35 1001.15 1462.51 995.94 1461.08 995.111 C 1453.96 990.98 1448.51 988.559 1440.93 985.495 C 1443.43 985.23 1444.43 985.066 1446.87 984.455 L 1447.54 982.77 C 1446.39 978.17 1446.05 976.868 1447.01 972.092 z"/>
<path transform="translate(0,0)" fill="rgb(124,65,158)" fill-opacity="0.215686" d="M 422.111 751.627 L 425.347 749.064 C 427.055 753.892 424.014 756.914 429.536 760.172 C 424.308 761.7 416.943 764.927 412.617 768.146 C 406.88 758.242 409.027 765.535 400.819 758.163 C 399.02 754.456 399.989 751.314 401.083 747.402 C 409.866 754.292 411.284 754.933 422.111 751.627 z"/>
<path transform="translate(0,0)" fill="rgb(68,34,120)" fill-opacity="0.658824" d="M 1372.61 1016.59 C 1378.63 1006.32 1380.67 999.053 1394.22 1002.62 L 1394 1003.89 C 1396.62 1009.18 1392.23 1014.32 1389.47 1019.44 C 1382.64 1017.78 1379.58 1017.13 1372.61 1016.59 z"/>
<path transform="translate(0,0)" fill="rgb(130,70,168)" fill-opacity="0.0352941" d="M 393.642 732.231 L 395.655 738.016 C 388.747 740.613 390.723 747.502 393.293 753.266 C 397.29 762.231 400.993 769.204 411.911 768.48 L 412.935 769.277 L 414.677 773.024 C 407.579 776.737 409.048 780.081 410.073 787.36 C 404.491 775.414 383.362 748.258 388.579 736.818 C 391.329 735.295 392.021 734.924 393.642 732.231 z"/>
<path transform="translate(0,0)" fill="rgb(130,70,168)" fill-opacity="0.698039" d="M 477.065 688.774 C 477.535 691.873 477.952 694.549 478.639 697.632 C 486.14 698.304 500.537 702.532 503.852 702.235 C 502.833 704.871 502.124 710.474 501.075 711.801 C 492.961 706.986 486.861 705.493 477.648 706.478 L 477.567 705.712 C 475.903 704.342 475.589 704.243 474.415 702.378 C 476.036 699.375 476.685 698.261 476.76 694.837 L 477.065 688.774 z"/>
<path transform="translate(0,0)" fill="rgb(130,70,168)" fill-opacity="0.109804" d="M 395.655 738.016 C 397.44 741.333 398.952 744.272 401.083 747.402 C 399.989 751.314 399.02 754.456 400.819 758.163 C 409.027 765.535 406.88 758.242 412.617 768.146 L 412.935 769.277 L 411.911 768.48 C 400.993 769.204 397.29 762.231 393.293 753.266 C 390.723 747.502 388.747 740.613 395.655 738.016 z"/>
<path transform="translate(0,0)" fill="rgb(130,70,168)" fill-opacity="0.505882" d="M 459.114 702.113 L 462.094 705.211 C 468.96 706.22 465.741 696.536 473.895 693.282 L 476.76 694.837 C 476.685 698.261 476.036 699.375 474.415 702.378 C 475.589 704.243 475.903 704.342 477.567 705.712 L 477.648 706.478 C 471.04 708.733 467.952 709.402 464.022 715.443 C 456.243 713.493 457.427 712.518 455.474 705.362 L 459.114 702.113 z"/>
<path transform="translate(0,0)" fill="rgb(124,65,158)" fill-opacity="0.403922" d="M 475.328 673.288 L 477.065 688.774 L 476.76 694.837 L 473.895 693.282 C 465.741 696.536 468.96 706.22 462.094 705.211 L 459.114 702.113 C 464.435 698.241 464.735 694.897 464.305 688.979 L 464.99 688.109 C 466.249 686.912 471.871 679.844 474.65 678.016 C 474.907 676.219 475.133 674.643 475.328 673.288 z"/>
<path transform="translate(0,0)" fill="rgb(98,44,148)" fill-opacity="0.964706" d="M 1422.38 691.886 C 1430.17 699.361 1434.28 705.526 1439.82 714.598 C 1433.29 715.356 1433.73 713.312 1428.24 711.157 C 1424.41 706.06 1421.45 702.334 1417.2 697.595 C 1418.97 693.065 1417.71 694.637 1422.38 691.886 z"/>
<path transform="translate(0,0)" fill="rgb(68,34,120)" fill-opacity="0.501961" d="M 1394.22 1002.62 C 1396.61 1003.05 1399.62 1003.43 1401.79 1004.36 L 1400.88 1006.21 C 1405.84 1012.04 1405.15 1018.33 1400.11 1024.07 C 1395.67 1021.67 1394.28 1020.93 1389.47 1019.44 C 1392.23 1014.32 1396.62 1009.18 1394 1003.89 L 1394.22 1002.62 z"/>
<path transform="translate(0,0)" fill="rgb(114,56,154)" fill-opacity="0.501961" d="M 1439.02 831.071 C 1439.95 827.784 1440.78 826.151 1442.19 823.102 C 1449.65 825.564 1449.37 826.704 1451.98 834.056 L 1455.5 837.162 L 1459.1 841.81 C 1456.71 842.159 1450.9 842.641 1449.31 843.941 C 1445.95 839.595 1442.52 835.304 1439.02 831.071 z"/>
<path transform="translate(0,0)" fill="rgb(114,56,154)" fill-opacity="0.105882" d="M 682.125 1206.04 C 682.2 1202.87 681.728 1203.67 683.301 1201.45 C 688.037 1198.95 689.781 1198.12 695.431 1197.85 C 697.485 1197.74 698.065 1199.15 700.143 1201.14 C 698.61 1206.48 697.645 1209.84 695.438 1214.9 L 682.125 1206.04 z"/>
<path transform="translate(0,0)" fill="rgb(114,56,154)" fill-opacity="0.14902" d="M 1098.83 1155.22 L 1101.11 1152.08 L 1102.71 1151.96 C 1110.88 1159.76 1111.98 1172.55 1120.36 1182.36 C 1115.82 1179.98 1114.33 1176.54 1110.1 1176.43 C 1105.68 1172.57 1100.96 1160.72 1098.83 1155.22 z"/>
<path transform="translate(0,0)" fill="url(#Gradient3)" d="M 1239.48 519.999 L 1239.64 516.347 C 1245.56 514.776 1252.87 525.963 1256.83 529.953 C 1258.49 531.629 1263.75 536.678 1264.69 538.198 C 1260.98 537.419 1261.38 536.856 1258.68 538.133 L 1257.89 539.866 C 1252.12 532.806 1245.82 526.534 1239.48 519.999 z"/>
<path transform="translate(0,0)" fill="url(#Gradient2)" d="M 1179.16 1188.3 L 1183.06 1189.45 C 1184.1 1192.6 1181.9 1192.72 1182.9 1195.47 C 1172.94 1198.23 1167.37 1198.99 1157.01 1198.81 C 1158.18 1198.38 1159.35 1197.95 1160.51 1197.49 C 1162.97 1196.57 1163.34 1196.69 1164.84 1194.41 C 1162.87 1191.26 1163.28 1192.18 1159.29 1190.32 C 1158.11 1190.93 1176.59 1188.93 1179.16 1188.3 z"/>
<path transform="translate(0,0)" fill="rgb(98,44,148)" fill-opacity="0.909804" d="M 1406.8 678.344 C 1412.55 683.019 1417.05 686.688 1422.38 691.886 C 1417.71 694.637 1418.97 693.065 1417.2 697.595 C 1409.86 690.358 1405.21 686.997 1396.87 680.844 C 1401.55 680.117 1402.63 681.457 1406.78 681.256 L 1406.8 678.344 z"/>
<path transform="translate(0,0)" fill="rgb(98,44,148)" fill-opacity="0.815686" d="M 1428.24 711.157 C 1433.73 713.312 1433.29 715.356 1439.82 714.598 L 1447.52 729.836 L 1445.89 733.206 L 1444.15 733.703 L 1440.57 730.896 L 1439.73 731.335 C 1436.26 726.05 1432.84 718.181 1428.24 711.157 z"/>
<path transform="translate(0,0)" fill="rgb(98,44,148)" fill-opacity="0.439216" d="M 1537.23 1148.31 C 1531.92 1138.19 1527.75 1129.92 1523.21 1119.46 C 1530.54 1124.16 1533.62 1125.76 1538.41 1132.92 C 1536.48 1141.78 1542.1 1137.3 1537.9 1144.09 C 1537.22 1145.2 1537.27 1146.96 1537.23 1148.31 z"/>
<path transform="translate(0,0)" fill="rgb(130,70,168)" fill-opacity="0.133333" d="M 699.009 494.747 C 705.624 494.903 703.091 495.817 706.901 499.797 C 701.988 502.781 698.084 505.196 693.453 508.577 L 692.247 503.004 C 688.8 504.724 679.095 509.157 676.815 511.052 L 676.26 509.296 C 679.126 506.467 684.302 504.321 688.231 501.784 L 699.009 494.747 z"/>
<path transform="translate(0,0)" fill="rgb(130,70,168)" fill-opacity="0.101961" d="M 698.919 493.856 C 709.144 491.488 711.178 486.581 720.022 484.578 L 720.831 486.832 C 721.761 486.662 722.167 486.783 723.073 486.941 C 722.492 487.946 722.918 487.438 721.577 488.254 L 721.723 489.257 L 720.732 491.49 C 716.08 494.391 711.685 497.121 706.901 499.797 C 703.091 495.817 705.624 494.903 699.009 494.747 L 698.919 493.856 z"/>
<path transform="translate(0,0)" fill="rgb(98,44,148)" fill-opacity="0.682353" d="M 1424.22 967.636 C 1431.52 969.689 1432.33 963.567 1436.5 969.222 L 1436.64 972.852 C 1433.93 974.847 1432.92 975.96 1430.9 978.66 C 1428.37 979.799 1428.37 979.753 1425.6 980.136 C 1424.48 979.597 1423.72 978.435 1423.36 977.258 C 1421.28 970.418 1418.29 972.106 1424.22 967.636 z"/>
<path transform="translate(0,0)" fill="rgb(114,56,154)" fill-opacity="0.698039" d="M 1390.04 669.224 C 1397.42 671.512 1400.78 673.39 1406.8 678.344 L 1406.78 681.256 C 1402.63 681.457 1401.55 680.117 1396.87 680.844 C 1394 679.006 1390.26 677.322 1387.15 675.799 C 1385.84 671.353 1386.86 671.399 1390.04 669.224 z"/>
<path transform="translate(0,0)" fill="rgb(130,70,168)" fill-opacity="0.203922" d="M 676.815 511.052 C 679.095 509.157 688.8 504.724 692.247 503.004 L 693.453 508.577 C 687.135 513.143 682.95 515.833 676.267 519.762 C 676.3 516.376 676.374 514.403 676.815 511.052 z"/>
<path transform="translate(0,0)" fill="rgb(124,65,158)" fill-opacity="0.313725" d="M 464.99 688.109 C 463.749 679.236 464.639 674.77 472.855 671.244 C 475.086 663.809 472.49 658.996 474.816 650.403 C 474.96 657.4 474.888 666.462 475.328 673.288 C 475.133 674.643 474.907 676.219 474.65 678.016 C 471.871 679.844 466.249 686.912 464.99 688.109 z"/>
<path transform="translate(0,0)" fill="rgb(68,34,120)" fill-opacity="0.407843" d="M 1205.65 1218.49 L 1212.99 1214.01 L 1215.16 1224.92 C 1211.23 1231.38 1205.84 1230.63 1202.44 1224.3 C 1204.37 1222.15 1204.38 1221.98 1205.4 1219.2 L 1205.65 1218.49 z"/>
<path transform="translate(0,0)" fill="rgb(114,56,154)" fill-opacity="0.290196" d="M 1257.89 539.866 L 1258.68 538.133 C 1261.38 536.856 1260.98 537.419 1264.69 538.198 C 1269.06 542.407 1272.11 539.667 1274.28 545.587 C 1271.77 548.378 1272.47 547.524 1268.39 548.835 L 1265.5 548.944 C 1262.38 547.278 1260.02 542.976 1257.89 539.866 z"/>
<path transform="translate(0,0)" fill="rgb(68,34,120)" fill-opacity="0.576471" d="M 1431.11 961.446 C 1434.38 961.054 1435.23 960.818 1438.43 961.315 C 1441.9 964.514 1441.14 963.009 1442.12 967.01 C 1441.02 969.815 1439.52 971.684 1436.64 972.852 L 1436.5 969.222 C 1432.33 963.567 1431.52 969.689 1424.22 967.636 C 1426.43 965.427 1428.75 963.486 1431.11 961.446 z"/>
<path transform="translate(0,0)" fill="rgb(114,56,154)" fill-opacity="0.25098" d="M 1164.3 494.719 L 1165.06 493.248 C 1163.09 493.002 1161.58 492.841 1159.62 492.366 C 1161.23 485.374 1179.46 490.317 1184.51 491.425 C 1182.94 492.359 1182.14 492.793 1180.47 493.54 L 1180.28 494.682 C 1175.56 494.363 1169.16 494.646 1164.3 494.719 z"/>
<path transform="translate(0,0)" fill="url(#Gradient1)" d="M 1179.16 1188.3 C 1184.98 1186.99 1188.95 1186.55 1195.04 1184.78 L 1195.48 1185.55 L 1191.57 1186.67 L 1191.4 1187.13 C 1194.23 1190.46 1195.08 1188.21 1198.11 1190.79 C 1191.89 1193.41 1189.55 1194.3 1182.9 1195.47 C 1181.9 1192.72 1184.1 1192.6 1183.06 1189.45 L 1179.16 1188.3 z"/>
<path transform="translate(0,0)" fill="rgb(124,65,158)" fill-opacity="0.207843" d="M 797.158 463.7 L 799.997 465 C 796.742 465.172 788.366 472.819 783.944 473.735 C 780.775 474.392 775.52 474.09 772.241 473.968 L 771.358 472.419 L 769.946 473.503 L 770.903 473.799 L 770.757 472.642 C 776.113 468.296 788.143 472.281 796.406 464.022 L 797.158 463.7 z"/>
<path transform="translate(0,0)" fill="rgb(124,65,158)" fill-opacity="0.211765" d="M 448.825 844.111 L 451.78 851.254 L 447.246 852.51 L 446.722 855.443 C 441.511 850.704 444.052 847.827 448.825 844.111 z"/>
<path transform="translate(0,0)" fill="rgb(98,44,148)" fill-opacity="0.215686" d="M 1549.16 1105.73 C 1554.83 1106.68 1560.51 1108.4 1566.06 1109.95 L 1561.78 1114.23 C 1557.24 1109.79 1554.84 1108.75 1549.16 1105.73 z"/>
</svg>