<svg version="1.1" xmlns="http://www.w3.org/2000/svg" style="display: block;" viewBox="0 0 2048 1365" width="1536" height="1024" preserveAspectRatio="none">
<defs>
	<linearGradient id="Gradient1" gradientUnits="userSpaceOnUse" x1="1531.07" y1="828.341" x2="1477.59" y2="831.15">
		<stop class="stop0" offset="0" stop-opacity="1" stop-color="rgb(74,30,177)"/>
		<stop class="stop1" offset="1" stop-opacity="1" stop-color="rgb(156,65,139)"/>
	</linearGradient>
	<linearGradient id="Gradient2" gradientUnits="userSpaceOnUse" x1="767.791" y1="976.801" x2="723.156" y2="922.928">
		<stop class="stop0" offset="0" stop-opacity="1" stop-color="rgb(182,83,135)"/>
		<stop class="stop1" offset="1" stop-opacity="1" stop-color="rgb(119,56,200)"/>
	</linearGradient>
	<linearGradient id="Gradient3" gradientUnits="userSpaceOnUse" x1="520.42" y1="811.769" x2="466.779" y2="763.856">
		<stop class="stop0" offset="0" stop-opacity="1" stop-color="rgb(138,60,168)"/>
		<stop class="stop1" offset="1" stop-opacity="1" stop-color="rgb(72,31,235)"/>
	</linearGradient>
	<linearGradient id="Gradient4" gradientUnits="userSpaceOnUse" x1="1308.64" y1="529.181" x2="1297" y2="576.822">
		<stop class="stop0" offset="0" stop-opacity="1" stop-color="rgb(132,75,252)"/>
		<stop class="stop1" offset="1" stop-opacity="1" stop-color="rgb(207,96,137)"/>
	</linearGradient>
	<linearGradient id="Gradient5" gradientUnits="userSpaceOnUse" x1="1423.4" y1="497.535" x2="1459.06" y2="449.69">
		<stop class="stop0" offset="0" stop-opacity="1" stop-color="rgb(163,75,186)"/>
		<stop class="stop1" offset="1" stop-opacity="1" stop-color="rgb(85,42,232)"/>
	</linearGradient>
	<linearGradient id="Gradient6" gradientUnits="userSpaceOnUse" x1="488.569" y1="876.17" x2="416.529" y2="832.478">
		<stop class="stop0" offset="0" stop-opacity="1" stop-color="rgb(141,69,190)"/>
		<stop class="stop1" offset="1" stop-opacity="1" stop-color="rgb(78,33,232)"/>
	</linearGradient>
	<linearGradient id="Gradient7" gradientUnits="userSpaceOnUse" x1="1381.97" y1="392.877" x2="1366.81" y2="459.185">
		<stop class="stop0" offset="0" stop-opacity="1" stop-color="rgb(115,63,248)"/>
		<stop class="stop1" offset="1" stop-opacity="1" stop-color="rgb(192,88,160)"/>
	</linearGradient>
	<linearGradient id="Gradient8" gradientUnits="userSpaceOnUse" x1="753.556" y1="903.278" x2="664.235" y2="856.161">
		<stop class="stop0" offset="0" stop-opacity="1" stop-color="rgb(157,75,176)"/>
		<stop class="stop1" offset="1" stop-opacity="1" stop-color="rgb(76,41,244)"/>
	</linearGradient>
	<linearGradient id="Gradient9" gradientUnits="userSpaceOnUse" x1="1426.81" y1="699.776" x2="1470.99" y2="675.951">
		<stop class="stop0" offset="0" stop-opacity="1" stop-color="rgb(217,101,120)"/>
		<stop class="stop1" offset="1" stop-opacity="1" stop-color="rgb(159,79,212)"/>
	</linearGradient>
	<linearGradient id="Gradient10" gradientUnits="userSpaceOnUse" x1="1441.76" y1="770.458" x2="1499.36" y2="755.512">
		<stop class="stop0" offset="0" stop-opacity="1" stop-color="rgb(196,87,109)"/>
		<stop class="stop1" offset="1" stop-opacity="1" stop-color="rgb(123,54,190)"/>
	</linearGradient>
	<linearGradient id="Gradient11" gradientUnits="userSpaceOnUse" x1="738.486" y1="767.995" x2="558.857" y2="784.115">
		<stop class="stop0" offset="0" stop-opacity="1" stop-color="rgb(69,27,177)"/>
		<stop class="stop1" offset="1" stop-opacity="1" stop-color="rgb(112,53,200)"/>
	</linearGradient>
	<linearGradient id="Gradient12" gradientUnits="userSpaceOnUse" x1="1379.33" y1="623.035" x2="1401.91" y2="601.115">
		<stop class="stop0" offset="0" stop-opacity="1" stop-color="rgb(232,117,120)"/>
		<stop class="stop1" offset="1" stop-opacity="1" stop-color="rgb(202,102,175)"/>
	</linearGradient>
	<linearGradient id="Gradient13" gradientUnits="userSpaceOnUse" x1="923.737" y1="547.348" x2="766.996" y2="225.569">
		<stop class="stop0" offset="0" stop-opacity="1" stop-color="rgb(90,37,173)"/>
		<stop class="stop1" offset="1" stop-opacity="1" stop-color="rgb(109,66,239)"/>
	</linearGradient>
</defs>
<path transform="translate(0,0)" fill="rgb(43,19,58)" d="M 859.106 85.2814 C 860.783 85.1838 862.46 85.0961 864.138 85.0183 C 878.26 84.3737 889.271 86.6789 900.073 96.7388 C 909.376 105.433 914.77 117.519 915.029 130.25 C 915.437 150.052 903.926 164.229 887.519 174.034 C 880.044 178.501 857.075 178.979 858.636 190.479 C 859.066 190.998 859.496 191.516 859.926 192.035 C 865.937 191.089 877.254 188.234 882.723 187.427 C 926.22 181.006 976.733 180.248 1018.96 192.445 C 1074.04 208.356 1106.58 240.143 1133.59 289.311 C 1194.39 298.444 1217.49 374.351 1202.34 426.935 C 1196.44 447.421 1186.75 459.501 1168.16 469.273 C 1169.11 516.571 1161.94 557.239 1136.23 597.123 C 1254.27 596.743 1328.11 627.681 1413.25 709.604 C 1402.3 688.325 1395.97 674.669 1402.66 650.51 C 1376.95 638.437 1346.98 618.794 1333.35 593.007 C 1308.09 603.377 1278.86 585.938 1262.63 566.541 C 1246.34 549.114 1241.06 508.092 1266.6 495.823 C 1299.36 480.089 1340.07 502.552 1359.98 527.916 C 1369 524.159 1371.29 523.783 1381.15 523.681 C 1373.86 503.542 1371.01 495.878 1373.94 474.637 C 1353.2 475.113 1333.7 473.309 1317.75 457.88 C 1309.86 450.37 1305.37 439.971 1305.3 429.077 C 1305.23 392.046 1349.29 380.202 1378.97 380.437 C 1409.94 380.682 1434.73 391.58 1456.53 413.047 C 1469.16 412.813 1478.37 413.677 1489.36 420.213 C 1509.59 432.241 1521.03 453.196 1534.14 471.702 C 1539.16 477.97 1547.24 483.404 1551.25 490.368 C 1573.35 528.748 1566.86 573.463 1545.17 610.353 C 1556.07 634.821 1556.22 652.258 1558.04 678.199 C 1559.66 687.876 1562.08 697.491 1563.71 707.161 C 1574.38 770.109 1549.48 836.171 1490.31 867.292 C 1491.76 874.499 1493.06 881.734 1494.22 888.992 C 1505.55 960.875 1485.36 1035.84 1442.77 1094.36 C 1435.68 1103.67 1428.32 1114.05 1419.02 1121.16 C 1433.72 1141.93 1465.15 1200.54 1452.73 1222.31 C 1433.58 1255.87 1342.38 1275.97 1308.77 1280.33 C 1265.46 1285.95 1217.04 1290.82 1174.94 1290.19 C 1074.63 1288.17 967.089 1285.55 873.045 1246.77 C 816.92 1223.63 844.505 1178.72 863.432 1140.81 C 822.393 1144.83 765.467 1143.16 725.401 1132.82 C 691.501 1124.08 664.212 1104.88 646.584 1074.23 C 635.678 1077.39 625.613 1079.63 614.424 1076.93 C 598.995 1072.62 587.14 1079.15 572.598 1082.27 C 514.984 1094.37 453.186 1079.82 412.122 1036.31 C 350.203 971.159 369.883 869.311 418.46 802.617 C 425.142 792.229 431.757 782.032 439.542 772.421 C 449.345 760.319 461.722 751.278 473.181 740.789 C 473.449 735.907 473.413 730.065 473.447 725.175 C 473.819 672.756 508.085 616.747 567.054 624.864 C 586.275 627.51 597.588 632.923 615.284 640.159 C 624.911 633.968 635.652 626.63 645.95 621.944 C 638.137 609.724 634.729 605.018 630.851 591.108 C 553.696 615.633 519.815 464.507 563.372 420.024 C 572.424 410.78 575.131 409.109 586.695 404.003 C 587.516 366.068 601.271 329.781 624.788 299.941 C 663.612 250.678 751.427 211.777 812.446 205.686 C 818.773 192.857 825.81 180.39 833.526 168.344 C 808.654 137.157 818.383 94.0446 859.106 85.2814 z M 496.579 935.39 C 508.081 937.667 516.908 939.871 528.051 943.791 C 534.201 941.287 540.4 938.905 546.645 936.646 C 563.261 933.136 567.52 932.525 584.485 934.779 C 578.378 930.262 573.252 927.166 568.232 921.303 C 546.654 896.097 549.867 853.545 565.653 826.242 C 550.452 823.194 550.746 820.111 540.578 816.623 C 508.936 843.209 500.475 863.02 495.038 904.319 C 493.763 914.004 495.157 925.648 496.579 935.39 z M 761.908 1068.89 C 788.259 1070.84 815.755 1071.14 842.249 1071.99 L 844.821 1071.6 C 844.873 1068.83 836.225 1051.6 834.531 1047.57 C 829.915 1036.6 826.184 1025.73 822.253 1014.5 C 795.232 1018.08 785.667 1017.76 758.759 1014.16 C 771.334 1032.06 773.655 1049.88 761.908 1068.89 z"/>
<path transform="translate(0,0)" fill="rgb(254,182,37)" d="M 1115.8 611.419 C 1119.66 611.088 1123.53 610.864 1127.4 610.747 C 1252.02 606.538 1372.65 657.582 1440.84 769.515 C 1464.04 807.594 1482.11 881.116 1483.69 924.335 C 1486.14 991.093 1455.9 1065.39 1409.61 1113.18 C 1355.29 1172.09 1269.24 1189.97 1191.9 1192.21 L 1191 1192.29 C 1135.77 1196.71 1038 1188.2 986.538 1171.84 C 804.025 1112.44 774.808 855.524 893.172 722.99 C 947.768 661.859 1033.87 617.679 1115.8 611.419 z"/>
<path transform="translate(0,0)" fill="rgb(254,232,144)" d="M 1037.56 667.366 C 1103.79 662.636 984.13 758.765 949.076 762.569 C 918.732 762.45 926.909 740.245 940.201 723.817 C 961.445 697.56 1004.33 671.073 1037.56 667.366 z"/>
<path transform="translate(0,0)" fill="rgb(196,104,155)" d="M 1150.26 941.122 C 1195.24 940.836 1240.21 940.785 1285.19 940.971 C 1295.32 940.957 1339.76 940.238 1346.92 941.524 L 1347.01 951.936 L 1150.17 951.961 L 1150.26 941.122 z"/>
<path transform="translate(0,0)" fill="rgb(43,19,58)" d="M 1111.97 835.251 C 1147.69 829.692 1150.03 880.935 1125.43 893.032 C 1091.27 898.911 1088.54 848.377 1111.97 835.251 z"/>
<path transform="translate(0,0)" fill="rgb(254,182,37)" d="M 1115.83 842.775 C 1135.03 843.215 1132.28 876.213 1121.88 885.94 C 1119.7 885.629 1115.7 885.223 1114.22 883.593 C 1104.76 873.156 1106.43 852.447 1115.83 842.775 z"/>
<path transform="translate(0,0)" fill="rgb(43,19,58)" d="M 1211.98 835.248 C 1215.4 834.878 1220.73 834.184 1223.97 835.002 C 1244.36 840.145 1245.58 870.991 1235.15 885.338 C 1232.6 888.847 1229.92 890.635 1226.34 892.887 C 1199.81 895.578 1195.16 876.582 1198.17 854.373 C 1199.37 845.462 1204.75 839.799 1211.98 835.248 z"/>
<path transform="translate(0,0)" fill="rgb(254,182,37)" d="M 1215.65 842.828 C 1235.96 843.021 1232.31 875.404 1222.65 885.756 C 1203.97 887.278 1205.73 852.699 1215.65 842.828 z"/>
<path transform="translate(0,0)" fill="rgb(196,104,155)" d="M 956.33 941.09 C 1015.76 940.326 1080.43 940.269 1139.97 940.979 L 1140.02 951.831 C 1111.79 952.429 1082.37 951.999 1054.02 952.01 C 1021.47 952.176 988.912 952.103 956.36 951.793 L 956.33 941.09 z"/>
<path transform="translate(0,0)" fill="rgb(254,232,144)" d="M 933.192 1041.79 C 946.492 1042.42 960.691 1056.91 967.434 1067.3 C 974.331 1077.94 983.59 1093.24 969.253 1101.58 C 955.513 1103.16 946.358 1093.88 938.266 1083.68 C 931.517 1075.17 924.315 1062.06 925.739 1050.78 C 926.345 1045.98 929.471 1044.26 933.192 1041.79 z"/>
<path transform="translate(0,0)" fill="rgb(43,19,58)" d="M 1326.1 835.096 C 1352.77 832.965 1351.64 865.701 1345.02 883.383 C 1343.38 887.756 1340.5 890.16 1336.84 892.837 C 1309.06 895.86 1311.69 862.286 1317.88 844.242 C 1319.23 840.334 1322.88 837.56 1326.1 835.096 z"/>
<path transform="translate(0,0)" fill="rgb(254,182,37)" d="M 1329.8 841.588 C 1345.2 845.627 1341.87 877.667 1333.51 886.779 C 1316.99 884.167 1320.16 850.898 1329.8 841.588 z"/>
<path transform="translate(0,0)" fill="rgb(43,19,58)" d="M 1003.03 835.029 C 1030.44 832.501 1030.05 879.992 1012.12 893.101 C 993.363 894.189 990.515 880.652 990.292 864.59 C 990.123 852.465 992.045 841.821 1003.03 835.029 z"/>
<path transform="translate(0,0)" fill="rgb(254,182,37)" d="M 1005.96 841.561 C 1021.3 845.79 1017.85 877.415 1009.04 887.013 C 996.404 884.333 998.13 868.122 998.63 857.888 C 998.976 850.827 1000.33 846.122 1005.96 841.561 z"/>
<path transform="translate(0,0)" fill="rgb(43,19,58)" d="M 1404.9 835.136 C 1431.92 832.68 1430.19 866.797 1423.24 884.254 C 1421.61 888.352 1418.83 890.429 1415.3 892.804 C 1392.36 894.879 1392.94 872.064 1394.25 855.217 C 1394.92 846.645 1397.96 840.369 1404.9 835.136 z"/>
<path transform="translate(0,0)" fill="rgb(254,182,37)" d="M 1407.9 841.553 C 1424.47 842.33 1420.47 876.967 1413.02 886.437 C 1408.5 886.135 1405.5 885.36 1403.89 880.827 C 1399.94 869.709 1400.59 850.661 1407.9 841.553 z"/>
<path transform="translate(0,0)" fill="rgb(43,19,58)" d="M 923.886 835.078 C 943.943 833.037 943.952 845.065 946.114 859.376 C 949.403 881.136 925.953 911.059 912.697 882.189 C 915.393 880.04 917.089 878.885 920.438 879.697 C 922.458 882.604 922.954 883.515 925.747 885.636 C 934.062 886.551 939.29 875.442 936.346 869.967 C 911.868 881.498 905.884 848.653 923.886 835.078 z"/>
<path transform="translate(0,0)" fill="rgb(254,182,37)" d="M 927.851 841.539 C 940.903 843.829 939.441 858.459 931.355 866.122 C 917.324 863.911 919.484 849.567 927.851 841.539 z"/>
<path transform="translate(0,0)" fill="rgb(43,19,58)" d="M 962.155 835.161 C 982.871 832.262 982.422 846.518 984.282 860.747 C 987.105 882.349 963.689 910.75 951.329 881.775 C 961.134 877.677 957.845 884.373 966.892 885.743 C 972.348 884.061 976.66 874.205 975.331 869.013 C 971.514 870.816 967.475 873.706 963.127 873.091 C 953.251 871.696 951.095 858.526 952.441 850.449 C 953.743 842.632 956.04 839.671 962.155 835.161 z"/>
<path transform="translate(0,0)" fill="rgb(254,182,37)" d="M 966.084 841.439 C 978.8 844.643 978.779 858.09 969.338 865.917 C 955.144 865.377 957.905 848.703 966.084 841.439 z"/>
<path transform="translate(0,0)" fill="rgb(43,19,58)" d="M 1160.72 835.198 C 1162.34 835.031 1163.97 834.897 1165.59 834.796 C 1174.91 834.245 1186.62 836.36 1186.7 847.97 C 1186.78 862.233 1172.44 874.264 1163.26 883.497 C 1169.61 883.668 1183.5 882.522 1188.51 884.209 C 1190.09 887.675 1188.96 889.582 1186.67 891.892 C 1182.23 893.481 1172.01 892.569 1166.5 892.48 C 1161.45 892.448 1156.39 892.499 1151.34 892.634 C 1149.06 891.034 1149.83 892.099 1149.17 889.189 C 1152.12 875.913 1187.73 854.99 1171.54 843.284 C 1161.97 842.612 1157.02 856.156 1150.55 852.993 C 1147.56 843.669 1153.45 839.196 1160.72 835.198 z"/>
<path transform="translate(0,0)" fill="rgb(43,19,58)" d="M 1062.83 835.212 C 1063.99 835.087 1065.14 834.975 1066.3 834.875 C 1076.46 834.008 1088.67 835.881 1088.21 848.929 C 1087.71 863.127 1074.3 874.504 1064.92 883.689 C 1073.73 883.495 1084.89 882.43 1092.63 886.756 L 1092.58 890.168 C 1086.83 893.432 1076.21 892.641 1069.5 892.51 C 1062.49 892.491 1056.66 894.689 1051.98 889.034 C 1051.7 878.54 1086.9 859.056 1075.23 844.801 C 1069.1 837.301 1062.4 853.524 1053.27 853.13 C 1048.67 845.111 1056.74 838.893 1062.83 835.212 z"/>
<path transform="translate(0,0)" fill="rgb(43,19,58)" d="M 1284.03 835.127 C 1292.97 834.048 1306.35 835.353 1306.31 847.222 C 1306.27 862.086 1293.23 873.974 1283.59 883.762 C 1291.02 883.919 1300.48 882.339 1306.93 885.38 C 1308.73 888.289 1308.47 886.76 1307.71 890.122 C 1303.29 894.399 1289.53 892.627 1282.37 892.569 L 1275.22 892.586 C 1272.48 890.855 1273.33 891.888 1272.24 888.665 C 1274.26 874.615 1310.16 854.869 1291.02 842.388 C 1283.64 842.045 1285.03 848.564 1278.11 853.055 C 1274.7 853.202 1276.04 853.467 1272.95 851.544 C 1268.89 844.127 1278.28 838.134 1284.03 835.127 z"/>
<path transform="translate(0,0)" fill="rgb(43,19,58)" d="M 1375.14 835.454 L 1379.63 835.636 C 1386.55 840.076 1380.32 861.89 1382.57 869.291 C 1382.87 870.274 1385.9 871.085 1387.18 871.582 C 1388.61 874.521 1388.22 873.465 1387.52 877.323 C 1385.81 877.85 1384.52 878.318 1382.87 878.947 C 1379.5 884.912 1386.6 888.695 1379.5 893.153 C 1376.3 892.977 1377.74 893.477 1375.09 891.443 L 1374.81 888.249 C 1374.89 884.497 1375.16 882.389 1374.12 878.743 C 1367.09 875.161 1357.69 882.02 1354.58 874.305 C 1354.91 866.666 1370.32 843.035 1375.14 835.454 z"/>
<path transform="translate(0,0)" fill="rgb(254,182,37)" d="M 1373.35 850.547 C 1375.88 855.576 1376.28 863.973 1373.22 869.014 C 1369.3 871.255 1368.55 870.415 1363.32 870.378 L 1362.66 869.135 C 1365.83 862.813 1369.7 856.627 1373.35 850.547 z"/>
<path transform="translate(0,0)" fill="rgb(196,104,155)" d="M 1357.07 941.068 L 1412 940.977 C 1420.25 940.994 1440.05 938.858 1444.52 945.945 C 1444.08 947.943 1444.1 948.278 1442.21 949.37 C 1432.86 954.765 1371.55 952.006 1357.08 951.95 L 1357.07 941.068 z"/>
<path transform="translate(0,0)" fill="rgb(196,104,155)" d="M 946.393 951.931 C 937.187 951.975 883.347 953.501 877.839 950.285 C 871.485 937.791 900.335 940.952 907.009 940.836 C 920.046 940.609 933.325 940.932 946.388 941.004 L 946.393 951.931 z"/>
<path transform="translate(0,0)" fill="rgb(43,19,58)" d="M 946.388 941.004 C 946.191 933.515 944.851 916.48 950.45 910.808 C 958.23 912.041 956.412 934.856 956.33 941.09 L 956.36 951.793 C 956.392 959.907 958.141 981.846 951.109 986.625 C 944.395 982.502 946.243 959.231 946.393 951.931 L 946.388 941.004 z"/>
<path transform="translate(0,0)" fill="rgb(43,19,58)" d="M 1139.97 940.979 C 1139.84 933.847 1138.25 914.886 1144.97 910.451 C 1152.09 915.26 1150.25 933.222 1150.26 941.122 L 1150.17 951.961 C 1150.27 958.401 1152.23 975.862 1144.6 978.208 C 1138.24 974.072 1139.85 958.667 1140.02 951.831 L 1139.97 940.979 z"/>
<path transform="translate(0,0)" fill="rgb(43,19,58)" d="M 1346.92 941.524 C 1346.79 932.367 1345.47 918.111 1351.18 910.693 C 1359.06 911.179 1357.15 935.492 1357.07 941.068 L 1357.08 951.95 C 1357.26 959.534 1359.09 973.856 1352.01 978.329 L 1350.15 977.237 C 1345.46 969.369 1346.78 961.138 1347.01 951.936 L 1346.92 941.524 z"/>
<path transform="translate(0,0)" fill="rgb(43,19,58)" d="M 896.624 835.536 C 899.175 835.652 899.069 835.654 901.436 836.652 C 902.358 842.04 902.735 889.347 900.645 892.332 C 898.239 892.717 897.152 893.156 894.949 892.141 C 893.274 888.453 893.878 882.088 893.965 877.75 L 893.891 847.812 C 890.805 851.064 887.632 854.951 883.395 856.209 L 882.537 855.145 C 885.21 846.256 890.275 842.075 896.624 835.536 z"/>
<path transform="translate(0,0)" fill="rgb(254,232,144)" d="M 882.854 909.902 C 888.098 908.892 893.167 912.331 894.165 917.577 C 895.164 922.824 891.714 927.884 886.465 928.871 C 881.233 929.855 876.192 926.418 875.196 921.188 C 874.201 915.958 877.626 910.909 882.854 909.902 z"/>
<path transform="translate(0,0)" fill="rgb(254,232,144)" d="M 1250.64 1031.13 C 1253.82 1030.18 1257.28 1031.02 1259.67 1033.32 C 1262.06 1035.63 1263.03 1039.05 1262.19 1042.26 C 1261.36 1045.48 1258.85 1048 1255.64 1048.85 C 1250.78 1050.14 1245.79 1047.29 1244.42 1042.45 C 1243.06 1037.62 1245.83 1032.58 1250.64 1031.13 z"/>
<path transform="translate(0,0)" fill="rgb(254,232,144)" d="M 1106.9 693.812 C 1120.93 694.576 1119.94 704.558 1110.96 712.348 C 1100.1 711.17 1097.5 700.372 1106.9 693.812 z"/>
<path transform="translate(0,0)" fill="rgb(254,232,144)" d="M 994.004 1007.52 C 998.137 1005.94 1002.77 1008.01 1004.34 1012.15 C 1005.91 1016.29 1003.83 1020.91 999.687 1022.48 C 995.561 1024.03 990.953 1021.96 989.386 1017.83 C 987.819 1013.71 989.885 1009.1 994.004 1007.52 z"/>
<path transform="translate(0,0)" fill="rgb(254,232,144)" d="M 1276.26 704.333 C 1279.63 704.339 1282.38 707.041 1282.44 710.411 C 1282.5 713.782 1279.86 716.583 1276.49 716.715 C 1274.25 716.803 1272.14 715.672 1270.97 713.758 C 1269.79 711.845 1269.75 709.448 1270.85 707.493 C 1271.95 705.537 1274.02 704.329 1276.26 704.333 z"/>
<path transform="translate(0,0)" fill="rgb(254,232,144)" d="M 1129.83 1064.47 C 1131.38 1063.35 1133.41 1063.17 1135.13 1063.99 C 1136.85 1064.82 1137.98 1066.52 1138.08 1068.42 C 1138.17 1070.33 1137.22 1072.13 1135.59 1073.12 C 1133.21 1074.58 1130.1 1073.89 1128.55 1071.57 C 1127 1069.24 1127.57 1066.11 1129.83 1064.47 z"/>
<path transform="translate(0,0)" fill="rgb(179,105,202)" d="M 1050.62 299.451 C 1068.09 298.439 1091.01 302.692 1100.71 319.188 C 1131.08 370.861 1132.74 447.512 1127.28 506.029 C 1125.03 530.101 1112.99 568.427 1094.38 584.631 C 1079.01 595.531 1059.34 601.291 1042.68 609.275 C 1011.1 624.414 990.411 637.049 955.161 642.823 C 904.597 651.106 853.016 658.065 801.764 651.05 C 783.665 647.861 764.79 644.108 750.741 631.29 C 724.755 607.58 722.5 550.703 719.918 517.757 C 718.638 501.425 717.138 485.062 716.328 468.699 C 714.775 437.291 715.424 406.266 738.093 381.68 C 790.421 324.928 974.977 302.2 1050.62 299.451 z"/>
<path transform="translate(0,0)" fill="rgb(43,19,58)" d="M 821.76 420.16 C 887.007 414.544 907.401 496.841 874.584 541.557 C 865.921 553.363 857.972 561.157 843.25 563.982 C 758.322 565.565 746.315 441.912 821.76 420.16 z"/>
<path transform="translate(0,0)" fill="rgb(241,206,173)" d="M 825.225 431.197 C 852.914 427.965 872.954 451.946 878.91 476.701 C 884.156 497.841 880.834 520.197 869.667 538.898 C 871.706 518.297 867.028 490.741 840.522 487.335 C 834.228 486.526 826.944 492.362 822.785 496.695 C 810.818 515.261 813.12 537.07 826.791 554.035 C 820.353 551.416 815.643 549.173 809.819 545.263 C 795.768 535.85 786.063 521.212 782.862 504.606 C 776.78 473.683 791.994 437.661 825.225 431.197 z"/>
<path transform="translate(0,0)" fill="rgb(179,105,202)" d="M 836.192 495.754 C 840.06 496.101 839.21 495.501 842.085 497.434 L 842.094 499.751 C 839.706 504.001 834.311 507.957 830.446 511.198 C 828.441 511.671 828.13 511.553 826.101 511.573 L 824.65 509.998 C 824.627 503.907 831.489 498.688 836.192 495.754 z"/>
<path transform="translate(0,0)" fill="rgb(43,19,58)" d="M 1039.05 377.246 C 1066.51 376.118 1084.82 391.69 1093.04 417.359 C 1099.66 438.001 1097.71 460.436 1087.64 479.63 C 1078.16 497.848 1065.8 507.643 1046.6 513.713 C 974.972 521.441 966.547 389.745 1039.05 377.246 z"/>
<path transform="translate(0,0)" fill="rgb(241,206,173)" d="M 1038.88 388.232 C 1060.89 386.888 1077.48 400.011 1084.84 420.321 C 1091.15 438.177 1090.16 457.8 1082.1 474.937 C 1074.74 490.464 1064.23 499.466 1048.37 505.206 C 1058.98 487.41 1064.79 466.991 1050.97 449.238 C 1037.22 438.683 1024.57 444.341 1018.93 459.861 C 1013.03 476.104 1015 486.858 1021.65 502.052 C 982.666 473.608 990.633 400.696 1038.88 388.232 z"/>
<path transform="translate(0,0)" fill="rgb(43,19,58)" d="M 1013.43 544.098 C 1029.99 542.576 1028.07 560.462 1023.37 570.281 C 1013.95 589.941 988.676 607.78 968.869 616.245 C 947.163 625.522 912.51 626.586 890.897 617.469 C 881.762 612.543 873.324 605.244 870.182 594.938 C 867.123 584.904 869.956 575.881 878.901 570.043 C 886.96 564.783 894.065 566.551 903.122 565.521 C 940.447 561.844 977.269 553.875 1013.43 544.098 z"/>
<path transform="translate(0,0)" fill="rgb(161,51,141)" d="M 894.17 576.23 C 912.653 575.372 960.413 577.678 975.127 593.102 C 981.552 599.838 964.979 608.694 959.699 611.584 C 956.464 612.716 953.17 613.676 949.833 614.461 C 894.428 626.955 852.689 583.218 894.17 576.23 z"/>
<path transform="translate(0,0)" fill="rgb(153,91,227)" d="M 859.366 204.299 C 912.467 197.36 965.029 191.383 1017.34 207.242 C 1036.72 213.121 1057.24 221.078 1072.9 234.289 C 1129.96 283.662 1148.32 357.083 1154.11 429.543 C 1154.7 436.813 1155.33 447.691 1154.92 454.906 C 1156.46 493.369 1151.75 559.241 1124.06 589.31 C 1121.63 591.941 1116.62 596.423 1113.8 598.942 C 1107.44 599.893 1098.38 600.979 1092.35 602.532 L 1091.44 600.513 C 1112.47 590.737 1124.07 563.752 1131.28 543.064 C 1142.1 512.028 1141.18 478.821 1141.18 446.437 C 1139.68 404.459 1133.77 337.111 1103.35 304.017 C 1089.22 288.648 1065.85 286.239 1046.41 287.509 C 963.583 292.566 880.235 305.197 801.469 331.96 C 781.711 338.674 767.212 345.628 749.711 357.359 C 690.846 396.816 704.405 456.582 708.397 516.407 C 714.292 604.733 721.369 663.885 827.97 665.108 C 838.606 670.974 854.375 661.29 853.34 677.258 C 854.554 676.669 817.022 679.299 816.68 679.277 C 784.031 678.006 751.882 670.836 721.788 658.113 C 697.803 648.842 669.18 631.365 653.819 610.371 C 648.574 603.202 644.851 593.068 641.61 584.75 C 672.001 550.656 675.577 507.044 664.208 463.933 C 658.956 444.016 644.257 418.814 626.044 408.508 C 618.881 404.454 610.092 403.488 602.761 399.293 L 601.925 398.804 C 601.417 372.738 610.173 345.782 624.136 323.879 C 662.246 264.098 738.926 234.219 805.22 219.54 C 779.653 260.814 841.886 257.026 857.801 237.283 C 864.419 229.072 861.162 213.936 859.366 204.299 z"/>
<path transform="translate(0,0)" fill="url(#Gradient13)" d="M 859.366 204.299 C 912.467 197.36 965.029 191.383 1017.34 207.242 C 1036.72 213.121 1057.24 221.078 1072.9 234.289 L 1072.19 238.066 C 1069.59 239.075 1048.52 237.105 1044.07 236.853 C 1021.68 235.618 999.243 235.662 976.861 236.984 C 912.304 241.418 744.881 275.71 691.164 331.565 C 690.666 332.083 690.41 334.923 690.364 335.873 C 692.638 340.285 694.797 342.903 697.801 346.828 C 688.675 366.415 680.798 397.303 679.998 419.003 C 677.585 484.475 679.988 555.102 697.906 618.367 C 703.29 637.372 716.299 645.682 721.788 658.113 C 697.803 648.842 669.18 631.365 653.819 610.371 C 648.574 603.202 644.851 593.068 641.61 584.75 C 672.001 550.656 675.577 507.044 664.208 463.933 C 658.956 444.016 644.257 418.814 626.044 408.508 C 618.881 404.454 610.092 403.488 602.761 399.293 L 601.925 398.804 C 601.417 372.738 610.173 345.782 624.136 323.879 C 662.246 264.098 738.926 234.219 805.22 219.54 C 779.653 260.814 841.886 257.026 857.801 237.283 C 864.419 229.072 861.162 213.936 859.366 204.299 z"/>
<path transform="translate(0,0)" fill="rgb(196,104,155)" d="M 1141.18 446.437 C 1142.62 453.052 1142.82 461.955 1142.97 468.82 C 1143.76 507.017 1139.38 528.053 1125.94 562.387 C 1129.24 561.417 1137.08 558.616 1139.89 559.409 C 1142.86 546.135 1148.12 533.913 1149.72 520.337 C 1151.23 507.585 1152.15 494.639 1153.08 481.884 C 1153.45 476.73 1153.94 457.965 1154.92 454.906 C 1156.46 493.369 1151.75 559.241 1124.06 589.31 C 1121.63 591.941 1116.62 596.423 1113.8 598.942 C 1107.44 599.893 1098.38 600.979 1092.35 602.532 L 1091.44 600.513 C 1112.47 590.737 1124.07 563.752 1131.28 543.064 C 1142.1 512.028 1141.18 478.821 1141.18 446.437 z"/>
<path transform="translate(0,0)" fill="rgb(79,30,170)" d="M 888.924 1127.81 C 893.212 1131.08 895.237 1133.03 899.052 1136.89 C 967.456 1207.98 1138.53 1209.72 1232.38 1201.62 C 1287.78 1196.84 1363.79 1176.65 1404.93 1136.73 C 1406.3 1135.39 1407.62 1134 1408.9 1132.57 C 1415.69 1141.34 1420.71 1150.54 1425.85 1160.36 C 1432.52 1172.22 1440.53 1191.92 1442.73 1205.41 C 1445.35 1221.51 1424.95 1231.51 1412.11 1237.23 C 1349.18 1265.26 1275.63 1272.95 1207.33 1274.98 C 1113.33 1277.78 1016.04 1273.99 924.558 1250.8 C 907.15 1246.74 851.71 1229.52 853.301 1206.76 C 854.561 1188.73 876.201 1140.77 888.924 1127.81 z"/>
<path transform="translate(0,0)" fill="rgb(179,105,202)" d="M 899.052 1136.89 C 967.456 1207.98 1138.53 1209.72 1232.38 1201.62 C 1287.78 1196.84 1363.79 1176.65 1404.93 1136.73 C 1406.3 1135.39 1407.62 1134 1408.9 1132.57 C 1415.69 1141.34 1420.71 1150.54 1425.85 1160.36 C 1416.91 1166.66 1407.51 1172.26 1397.72 1177.14 C 1289.15 1230.82 1063.88 1231.77 947.406 1192.27 C 929.579 1184.83 900.864 1178.33 889.63 1161.69 C 884.163 1153.6 897.084 1143.91 899.052 1136.89 z"/>
<path transform="translate(0,0)" fill="rgb(153,91,227)" d="M 1394.46 524.749 C 1387.2 503.047 1378.5 487.409 1395.48 468.55 C 1398.46 498.938 1410.62 514.644 1442.06 517.816 C 1441.79 527.176 1441.81 532.594 1445.6 541.338 C 1456.97 567.609 1499.48 574.874 1518.49 553.129 C 1522.64 548.378 1524.45 541.77 1523.95 535.562 C 1521.82 535.149 1518.64 539.21 1516.91 541.003 C 1504.26 554.146 1480.86 554.944 1466.05 545.355 C 1448.34 533.9 1461.67 513.48 1470.51 501.04 C 1477.84 490.98 1488.1 483.33 1500.42 481.522 C 1532.33 476.839 1547.68 502.637 1551.05 530.729 C 1552.67 544.23 1551.45 561.445 1546.49 574.178 C 1537.71 606.459 1512.48 635.535 1479.2 643.499 C 1437.01 662.415 1366.96 625.506 1346.38 586.501 C 1350.33 579.564 1353.79 575.712 1357.49 567.477 C 1360.37 562.151 1364.81 545.271 1368.73 541.897 C 1388.56 524.822 1411.41 555.822 1423.03 568.499 C 1430.46 576.602 1435.28 581.385 1441.46 587.735 C 1441.94 575.952 1418.06 543.008 1408.57 534.323 C 1405.47 531.49 1398.32 527.111 1394.46 524.749 z"/>
<path transform="translate(0,0)" fill="url(#Gradient12)" d="M 1346.38 586.501 C 1350.33 579.564 1353.79 575.712 1357.49 567.477 C 1360.37 562.151 1364.81 545.271 1368.73 541.897 C 1388.56 524.822 1411.41 555.822 1423.03 568.499 C 1430.46 576.602 1435.28 581.385 1441.46 587.735 L 1440.84 588.135 C 1434.59 588.308 1404.49 545.641 1389.87 540.754 L 1389.02 540.475 C 1383.31 538.572 1380.44 538.896 1374.3 539.09 C 1367.89 545.46 1366.63 545.06 1367.16 553.833 L 1364.79 555.694 C 1364.87 557.942 1364.5 557.858 1365.59 559.47 C 1372.92 570.282 1371.76 584.85 1382.25 594.891 C 1393.6 605.754 1408.79 616.695 1421.06 626.569 C 1426.68 631.085 1441.22 637.379 1443.79 641.08 L 1442.71 643.401 C 1447.56 650.085 1477.59 642.124 1479.2 643.499 C 1437.01 662.415 1366.96 625.506 1346.38 586.501 z"/>
<path transform="translate(0,0)" fill="rgb(107,50,203)" d="M 1470.51 501.04 C 1477.84 490.98 1488.1 483.33 1500.42 481.522 C 1532.33 476.839 1547.68 502.637 1551.05 530.729 C 1552.67 544.23 1551.45 561.445 1546.49 574.178 C 1545.72 570.894 1547.07 566.661 1547.68 563.079 C 1550.24 547.826 1552.29 532.441 1546.58 517.645 C 1544.65 518.105 1537.66 528.151 1536.27 530.219 L 1535.8 530.927 L 1533.22 531.435 C 1529.22 528.767 1496.15 492.659 1493.75 488.151 L 1493.3 487.276 C 1485.4 484.998 1477.85 498.539 1470.51 501.04 z"/>
<path transform="translate(0,0)" fill="rgb(179,105,202)" d="M 1367.16 553.833 C 1375.06 559.401 1371.8 568.868 1376.01 574.522 C 1377.94 574.083 1378.43 574.31 1379.68 573.157 C 1384.18 577.909 1383.34 584.283 1386.61 587.7 C 1387.62 585.801 1387.52 585.86 1387.79 583.703 L 1387.66 584.365 L 1390.14 585.012 L 1390.88 587.257 C 1388.88 589.063 1386.24 589.04 1383.49 589.423 C 1385.81 591.981 1384.61 591.352 1387.87 591.996 L 1391.4 590.387 L 1392.55 591.338 L 1391.5 593.587 C 1398.17 597.231 1398.96 594.135 1404.25 600.349 C 1404.86 601.073 1417.42 613.698 1416.46 613.305 C 1427.45 617.808 1435.07 620.69 1440.18 632.613 C 1441.36 635.37 1445.47 635.88 1448.71 637.137 L 1448.47 638.333 C 1446.83 639.353 1445.53 640.203 1443.79 641.08 C 1441.22 637.379 1426.68 631.085 1421.06 626.569 C 1408.79 616.695 1393.6 605.754 1382.25 594.891 C 1371.76 584.85 1372.92 570.282 1365.59 559.47 C 1364.5 557.858 1364.87 557.942 1364.79 555.694 L 1367.16 553.833 z"/>
<path transform="translate(0,0)" fill="rgb(107,50,203)" d="M 696.573 702.112 C 707.32 708.219 734.158 723.492 746.112 724.285 C 780.319 739.71 827.106 746.177 863.982 740.699 C 851.052 760.982 840.257 779.64 831.091 802.148 C 808.119 858.556 803.459 930.755 816.699 990.22 C 817.645 994.433 818.645 998.633 819.698 1002.82 C 804.652 1003.56 750.011 1006.13 744.936 990.285 C 753.663 986.468 767.404 991.882 778.94 985.722 C 811.537 968.316 798.596 941.402 779.433 918.709 C 777.579 916.514 763.448 903.52 762.866 901.985 L 763.938 901.637 C 800.264 889.593 800.999 813.514 741.124 825.419 C 710.732 831.462 704.629 830.709 673.813 845.383 C 673.691 812.301 675.208 779.745 679.73 746.925 C 682.147 729.38 683.835 715.621 696.573 702.112 z"/>
<path transform="translate(0,0)" fill="url(#Gradient11)" d="M 623.416 648.352 C 636.355 640.806 641.785 637.53 656.014 633.011 C 661.616 637.943 681.221 650.314 684.16 654.409 C 706.369 685.348 714.176 702.003 746.112 724.285 C 734.158 723.492 707.32 708.219 696.573 702.112 C 683.835 715.621 682.147 729.38 679.73 746.925 C 675.208 779.745 673.691 812.301 673.813 845.383 C 652.392 861.315 634.759 877.361 623.993 902.511 C 620.385 910.941 613.719 920.254 604.355 922.78 C 587.695 927.274 573.321 911.707 569.11 897.005 C 562.701 873.686 566.481 849.718 578.16 828.785 C 619.872 823.802 644.424 802.181 654.106 760.977 C 663.376 721.528 652.232 677.211 623.416 648.352 z"/>
<path transform="translate(0,0)" fill="rgb(107,50,203)" d="M 547.842 637.32 C 601.867 630.426 643.278 677.615 644.416 728.729 C 644.956 752.932 641.007 775.954 624.762 794.766 C 609.455 812.493 572.989 822.15 554.725 804.871 C 560.202 800.584 562.473 798.476 567.235 793.399 C 587.001 761.977 577.04 677.804 526.251 685.926 C 502.7 689.692 499.388 708.557 488.471 724.5 L 487.334 724.499 C 481.97 696.098 508.008 648.912 535.606 640.022 C 539.583 638.74 543.722 637.93 547.842 637.32 z"/>
<path transform="translate(0,0)" fill="rgb(4,1,10)" d="M 593.433 688.631 C 603.514 702.449 603.963 709.837 604.07 726.286 L 602.299 728.223 L 600.978 727.516 C 601.081 711.832 598.719 702.992 593.433 688.631 z"/>
<path transform="translate(0,0)" fill="rgb(43,19,58)" d="M 604.07 726.286 C 603.844 729.838 604.073 732.897 602.187 735.773 C 600.623 733.546 601.01 730.375 600.978 727.516 L 602.299 728.223 L 604.07 726.286 z"/>
<path transform="translate(0,0)" fill="rgb(107,50,203)" d="M 598.062 416.142 C 662.814 412.638 682.515 561.633 618.223 579.013 C 562.414 590.1 523.913 431.654 598.062 416.142 z"/>
<path transform="translate(0,0)" fill="rgb(43,19,58)" d="M 603.651 514.017 C 601.063 494.638 596.653 476.776 580.321 463.956 C 576.935 461.298 574.719 459.525 570.424 458.968 C 570.029 455.516 569.544 456.198 571.045 453.974 C 575.774 452.781 579.863 455.742 583.931 457.875 C 596.307 464.367 604.659 482.708 607.793 495.918 C 609.153 501.541 610.056 507.265 610.494 513.033 C 611.476 524.668 611.961 551.304 598.261 555.125 C 596.799 553.167 598.573 549.393 599.447 546.308 C 603.437 532.231 604.414 528.492 603.651 514.017 z"/>
<path transform="translate(0,0)" fill="rgb(107,50,203)" d="M 632.735 920.119 C 647.761 919.346 649.968 920.302 664.461 924.459 C 659.117 932.63 658.388 936.151 656.171 945.552 C 668.128 934.711 672.768 921.462 690.459 933.71 C 707.154 945.269 715.344 958.644 703.552 976.799 C 684.006 983.11 662.921 995.332 660.482 1017.81 C 659.124 1030.32 666.353 1036.44 669.582 1046.54 L 668.501 1048.55 C 642.774 1069.04 603.35 1072.05 583.184 1041.81 C 559.365 1007.45 577.87 967.796 606.044 942.897 C 615.297 934.72 619.804 922.946 632.735 920.119 z"/>
<path transform="translate(0,0)" fill="rgb(107,50,203)" d="M 432.061 958.656 C 468.221 936.687 485.751 948.042 521.702 953.698 C 514.503 960.257 510.07 964.71 504.39 972.976 C 485.839 1001.66 485.58 1037.42 508.959 1063.77 C 511.428 1066.55 514.07 1069.22 516.654 1071.9 C 509.229 1070.59 503.778 1070.56 495.49 1068.63 C 467.433 1061.9 432.497 1045.99 416.453 1020.89 C 401.182 996.995 409.113 973.039 432.061 958.656 z"/>
<path transform="translate(0,0)" fill="rgb(153,91,227)" d="M 432.061 958.656 C 468.221 936.687 485.751 948.042 521.702 953.698 C 514.503 960.257 510.07 964.71 504.39 972.976 C 501.657 973.05 498.921 973.047 496.188 972.968 C 485.652 972.63 438.269 965.326 432.061 958.656 z"/>
<path transform="translate(0,0)" fill="rgb(79,30,170)" d="M 679.975 1056.94 C 715.883 1084.23 747.905 1082.95 791.391 1083.76 C 811.768 1084.23 832.151 1084.4 852.533 1084.27 C 862.252 1098.36 868.992 1107.59 880.412 1120.24 C 872.306 1124.93 868.089 1126.12 858.897 1127.89 C 790.466 1131.13 701.168 1134.8 659.457 1069.9 C 667.59 1065.31 672.502 1062.49 679.975 1056.94 z"/>
<path transform="translate(0,0)" fill="rgb(107,50,203)" d="M 1503.65 726.63 C 1525.54 717.964 1535.83 711.357 1547.42 690.066 C 1549.83 715.925 1560.09 761.378 1542.64 785.147 C 1536.02 794.166 1522.69 798.593 1512.26 801.38 C 1498.06 805.469 1485.4 806.127 1470.82 805.664 C 1460.04 775.418 1453.44 762.009 1434.56 736.207 C 1430.87 732.462 1422.25 724.444 1423.18 719.241 C 1428.55 717.353 1438.21 723.819 1443.12 726.518 C 1466.35 733.966 1480.39 732.886 1503.65 726.63 z"/>
<path transform="translate(0,0)" fill="url(#Gradient10)" d="M 1434.56 736.207 C 1430.87 732.462 1422.25 724.444 1423.18 719.241 C 1428.55 717.353 1438.21 723.819 1443.12 726.518 C 1466.35 733.966 1480.39 732.886 1503.65 726.63 L 1503.8 727.817 C 1501.73 728.555 1494.92 730.537 1494.88 731.567 C 1494.43 744.003 1504 791.709 1506.75 800.755 L 1512.26 801.38 C 1498.06 805.469 1485.4 806.127 1470.82 805.664 C 1460.04 775.418 1453.44 762.009 1434.56 736.207 z"/>
<path transform="translate(0,0)" fill="rgb(161,51,141)" d="M 1434.56 736.207 C 1430.87 732.462 1422.25 724.444 1423.18 719.241 C 1428.55 717.353 1438.21 723.819 1443.12 726.518 C 1439.3 726.159 1436.47 725.451 1433.28 727.311 C 1432.43 732.979 1434.9 732.092 1434.56 736.207 z"/>
<path transform="translate(0,0)" fill="rgb(107,50,203)" d="M 1479.02 658.615 C 1505.43 648.97 1513.77 646.161 1537.37 628.305 C 1550.32 665.753 1545.78 698.702 1503.5 713.06 C 1502.32 713.463 1501.36 713.678 1500.13 713.958 C 1490.15 717.119 1477.82 718.699 1467.45 718.145 C 1446.66 717.037 1424.65 702.84 1416.72 683.29 C 1413.16 674.486 1413.65 665.982 1414.24 656.736 C 1438.44 663.396 1454.82 662.961 1479.02 658.615 z"/>
<path transform="translate(0,0)" fill="url(#Gradient9)" d="M 1414.24 656.736 C 1438.44 663.396 1454.82 662.961 1479.02 658.615 C 1472.94 662.921 1464.51 660.283 1462.78 668.567 C 1459.9 682.412 1477.46 706.666 1488.01 714.161 C 1491.27 714.097 1499.17 712.729 1500.06 713.087 L 1500.13 713.958 C 1490.15 717.119 1477.82 718.699 1467.45 718.145 C 1446.66 717.037 1424.65 702.84 1416.72 683.29 C 1413.16 674.486 1413.65 665.982 1414.24 656.736 z"/>
<path transform="translate(0,0)" fill="rgb(107,50,203)" d="M 519.008 972.743 C 520.756 970.704 522.561 968.713 524.42 966.773 C 543.436 947.246 562.876 945.33 588.457 944.986 C 583.024 950.265 580.15 953.985 575.557 959.873 C 552.36 996.246 553.382 1033.04 585.461 1063.74 C 567.515 1071.71 552.852 1073.9 533.196 1071.78 C 500.597 1050.96 489.218 1000.38 519.008 972.743 z"/>
<path transform="translate(0,0)" fill="rgb(153,91,227)" d="M 519.008 972.743 C 520.756 970.704 522.561 968.713 524.42 966.773 C 543.436 947.246 562.876 945.33 588.457 944.986 C 583.024 950.265 580.15 953.985 575.557 959.873 C 564.28 965.904 531.245 975.309 519.008 972.743 z"/>
<path transform="translate(0,0)" fill="rgb(79,30,170)" d="M 703.285 661.714 C 760.537 696.334 846.652 696.24 910.979 686.5 C 903.498 693.491 897.119 699.955 890.027 707.354 C 884.403 713.206 877.238 722.166 871.835 728.529 C 831.362 731.381 806.551 732.229 766.731 720.041 C 733.095 709.746 719.177 691.848 703.285 661.714 z"/>
<path transform="translate(0,0)" fill="rgb(107,50,203)" d="M 418.518 880.242 C 436.237 878.76 457.393 882.085 472.195 892.91 C 482.34 900.329 480.97 920.737 482.209 934.106 C 454.278 933.621 438.694 938.478 417.061 957.599 C 403.132 971.154 401.246 976.142 398.529 994.686 C 384.511 963.97 382.331 922.579 392.363 890.48 C 400.774 884.046 408.296 881.973 418.518 880.242 z"/>
<path transform="translate(0,0)" fill="url(#Gradient8)" d="M 738.086 839.383 C 755.502 835.998 776.168 840.037 774.726 862.352 C 772.317 899.635 724.521 890.268 699.934 896.7 C 688.607 899.663 680.329 905.76 671.605 913.703 C 668.945 914.808 642.963 909.896 634.301 910.063 C 659.104 865.053 686.454 845.573 738.086 839.383 z"/>
<path transform="translate(0,0)" fill="url(#Gradient7)" d="M 1330.98 451.526 C 1325.45 447.66 1319.3 440.619 1318.23 433.791 C 1314.51 410.155 1342.14 396.9 1361.58 394.612 C 1385.3 391.619 1409.8 394.351 1429.1 408.976 C 1431.82 411.069 1434.47 413.238 1437.06 415.479 C 1430.56 418.859 1420.41 423.936 1415.57 429.179 C 1400.11 445.949 1393.77 459.428 1367.63 461.378 C 1353.06 461.504 1343.35 459.44 1330.98 451.526 z"/>
<path transform="translate(0,0)" fill="rgb(196,104,155)" d="M 1330.98 451.526 C 1344.01 443.618 1360.99 447.648 1367.63 461.378 C 1353.06 461.504 1343.35 459.44 1330.98 451.526 z"/>
<path transform="translate(0,0)" fill="url(#Gradient6)" d="M 445.73 805.236 C 471.634 807.493 488.383 817.189 500.167 840.487 C 497.45 848.132 493.364 856.036 490.777 863.932 C 487.762 873.135 485.777 882.572 483.659 892.015 C 474.734 882.336 469.464 879.211 457.283 874.432 C 436.611 867.455 414.972 870.685 395.138 878.342 C 401.792 857.014 411.619 834.686 425.676 816.998 C 431.384 809.816 436.845 806.881 445.73 805.236 z"/>
<path transform="translate(0,0)" fill="url(#Gradient5)" d="M 1429.17 437.682 C 1459.39 407.908 1501.86 436.712 1513.4 470.184 C 1501.73 470.066 1495.43 469.895 1484.19 473.999 C 1461 485.531 1463.17 494.272 1449.18 504.959 C 1409.54 514.714 1395.88 461.448 1429.17 437.682 z"/>
<path transform="translate(0,0)" fill="rgb(107,50,203)" d="M 1429.17 437.682 C 1459.39 407.908 1501.86 436.712 1513.4 470.184 C 1501.73 470.066 1495.43 469.895 1484.19 473.999 C 1459.54 465.113 1450.5 459.217 1438.04 434.891 L 1436.53 434.655 C 1433.59 436.44 1432.57 437.213 1429.17 437.682 z"/>
<path transform="translate(0,0)" fill="url(#Gradient4)" d="M 1265.25 518.712 C 1285.62 486.705 1350.08 516.129 1351.32 549.109 C 1337.89 620.812 1248.27 562.915 1265.25 518.712 z"/>
<path transform="translate(0,0)" fill="rgb(153,91,227)" d="M 1265.25 518.712 C 1285.62 486.705 1350.08 516.129 1351.32 549.109 C 1350.39 546.549 1350.01 545.651 1348.24 543.591 L 1348.62 543.766 C 1327.84 554.343 1284.54 536.621 1269.19 521.297 C 1267.29 519.4 1268.25 519.598 1265.25 518.712 z"/>
<path transform="translate(0,0)" fill="url(#Gradient3)" d="M 447.833 796.522 C 444.413 796.509 443.804 796.656 440.649 795.561 C 440.511 784.423 472.02 760 479.257 752.878 C 480.576 751.579 491.448 734.732 493.899 731.297 C 496.134 734.902 497.628 738.275 499.417 742.107 L 499.887 742.653 C 514.835 759.735 528.235 762.913 535.117 789.276 C 527.351 812.195 519.873 814.589 505.533 832.415 C 492.236 810.019 473.569 798.658 447.833 796.522 z"/>
<path transform="translate(0,0)" fill="rgb(107,50,203)" d="M 447.833 796.522 C 444.413 796.509 443.804 796.656 440.649 795.561 C 440.511 784.423 472.02 760 479.257 752.878 C 480.576 751.579 491.448 734.732 493.899 731.297 C 496.134 734.902 497.628 738.275 499.417 742.107 C 494.872 739.774 495.856 736.871 493.219 735.624 C 470.616 762.343 498.895 754.374 483.875 779.142 C 480.252 785.118 462.184 793.201 455.91 790.149 C 454.43 787.283 453.564 785.404 452.39 782.401 C 448.584 782.971 444.49 791.249 442.607 794.494 C 444.227 794.529 445.654 794.586 447.271 794.698 L 447.833 796.522 z"/>
<path transform="translate(0,0)" fill="url(#Gradient2)" d="M 686.137 918.746 C 703.351 905.756 717.128 901.434 738.344 906.689 C 775.862 914.074 825.889 994.049 723.083 975.998 C 725.135 958.931 719.836 947.754 707.457 935.934 C 699.784 929.149 694.416 924.752 686.137 918.746 z"/>
<path transform="translate(0,0)" fill="rgb(107,50,203)" d="M 686.137 918.746 C 703.351 905.756 717.128 901.434 738.344 906.689 C 752.856 923.709 714.991 929.501 707.457 935.934 C 699.784 929.149 694.416 924.752 686.137 918.746 z"/>
<path transform="translate(0,0)" fill="rgb(107,50,203)" d="M 670.684 1019.99 C 675.272 1009.44 679.99 1003.79 688.782 996.561 C 709.495 979.525 737.576 1006.12 749.598 1023.78 C 767.206 1040.82 746.481 1079.46 718.939 1061.43 C 717.68 1061.11 716.426 1060.76 715.178 1060.39 C 690.525 1053.15 682.238 1041.08 670.684 1019.99 z"/>
<path transform="translate(0,0)" fill="rgb(161,51,141)" d="M 749.598 1023.78 C 767.206 1040.82 746.481 1079.46 718.939 1061.43 L 719.86 1060.7 C 722.953 1061.57 723.229 1061.71 726.382 1061.58 C 731.699 1058.82 733.043 1057.76 735.365 1052.3 L 733.471 1052.22 L 732.842 1050.57 C 734.135 1044.08 741.144 1032.93 744.777 1026.88 L 745.712 1027.06 C 745.883 1032.12 744.332 1039.64 742.174 1044.23 C 741.768 1041.67 742.316 1042.71 740.65 1040.92 C 739.277 1042.96 737.676 1046.7 737.006 1049.04 C 742.588 1046.41 739.735 1045.61 748.296 1043.83 L 749.512 1043.58 C 756.873 1037.75 752.182 1032.01 748.817 1025.23 L 749.598 1023.78 z"/>
<path transform="translate(0,0)" fill="rgb(107,50,203)" d="M 524.206 694.337 C 540.848 693.948 550.657 700.587 558.621 715.636 C 566.833 731.153 570.561 756.685 566.146 773.858 C 562.998 786.101 554.869 790.293 544.627 795.768 C 541.008 781.697 536.927 770.811 527.797 758.932 C 519.699 748.394 504.391 740.569 500.924 727.13 C 499.396 721.203 501.924 712.587 505.364 707.665 C 511.029 699.56 514.749 696.41 524.206 694.337 z"/>
<path transform="translate(0,0)" fill="rgb(254,143,47)" d="M 847.854 104.811 C 849.606 103.728 851.395 102.704 853.217 101.743 C 861.621 97.4126 871.257 97.947 880.004 100.856 C 884.925 103.64 886.712 104.678 890.974 108.311 C 915.73 134.274 890.649 168.363 862.473 166.836 C 855.011 166.473 848.01 163.12 843.049 157.534 C 837.336 151.062 834.331 141.197 835.008 132.641 C 835.237 129.962 835.575 127.293 836.019 124.641 C 839.218 115.182 840.651 111.432 847.854 104.811 z"/>
<path transform="translate(0,0)" fill="rgb(254,96,14)" d="M 890.974 108.311 C 915.73 134.274 890.649 168.363 862.473 166.836 C 855.011 166.473 848.01 163.12 843.049 157.534 C 837.336 151.062 834.331 141.197 835.008 132.641 C 835.237 129.962 835.575 127.293 836.019 124.641 C 841.45 128.123 843.661 133.89 848.005 137.41 C 863.018 149.573 883.907 143.167 889.902 124.833 C 891.93 118.63 891.243 114.334 890.974 108.311 z"/>
<path transform="translate(0,0)" fill="rgb(241,206,173)" d="M 847.854 104.811 C 849.606 103.728 851.395 102.704 853.217 101.743 C 861.621 97.4126 871.257 97.947 880.004 100.856 C 874.732 124.453 857.855 127.852 847.854 104.811 z"/>
<path transform="translate(0,0)" fill="rgb(107,50,203)" d="M 1140.64 306.261 C 1158.38 312.502 1168.09 319.465 1178.21 336.284 C 1188.36 353.153 1197.37 386.025 1192.31 404.944 C 1190.7 423.282 1184.52 443.381 1168.07 453.609 C 1167.66 446.547 1167.41 436.157 1166.64 429.392 C 1162.92 382.243 1157.2 350.296 1140.64 306.261 z"/>
<path transform="translate(0,0)" fill="rgb(179,105,202)" d="M 1166.64 429.392 C 1166.84 426.944 1167.12 424.82 1167.46 422.387 L 1168.38 431.289 C 1170.69 429.499 1183.52 424.376 1186.98 422.917 C 1188.21 421.06 1190.31 408.116 1190.89 405.031 L 1192.31 404.944 C 1190.7 423.282 1184.52 443.381 1168.07 453.609 C 1167.66 446.547 1167.41 436.157 1166.64 429.392 z"/>
<path transform="translate(0,0)" fill="url(#Gradient1)" d="M 1532.27 805.984 L 1533.52 806.154 C 1533.67 815.545 1498.72 851.562 1487.69 853.571 C 1485.54 851.606 1485.44 849.429 1484.45 846.27 C 1481.35 836.323 1477.71 826.652 1474.11 816.882 C 1493.56 816.747 1514.24 813.476 1532.27 805.984 z"/>
<path transform="translate(0,0)" fill="rgb(200,102,112)" d="M 827.97 665.108 C 869.389 665.333 914.933 664.422 955.288 653.94 C 949.079 657.712 931.688 670.183 926.75 671.263 C 898.2 677.511 844.955 681.931 816.68 679.277 C 817.022 679.299 854.554 676.669 853.34 677.258 C 854.375 661.29 838.606 670.974 827.97 665.108 z"/>
<path transform="translate(0,0)" fill="rgb(153,91,227)" d="M 842.921 181.677 C 846.839 184.998 847.254 217.669 848.754 224.279 C 852.14 239.2 833.012 241.768 821.596 242.643 C 811.964 241.825 812.337 237.907 815.846 229.323 C 822.705 212.544 832.873 196.69 842.921 181.677 z"/>
<path transform="translate(0,0)" fill="rgb(161,51,141)" d="M 1091.44 600.513 L 1092.35 602.532 L 1077.84 605.87 C 1081.73 602.573 1086.58 601.667 1091.44 600.513 z"/>
</svg>